<mxfile host="65bd71144e">
    <diagram id="guhOQeZ1BgSmY8BauyUD" name="problem-1">
        <mxGraphModel dx="1539" dy="683" grid="1" gridSize="10" guides="1" tooltips="1" connect="1" arrows="1" fold="1" page="1" pageScale="1" pageWidth="827" pageHeight="1169" math="0" shadow="0">
            <root>
                <mxCell id="0"/>
                <mxCell id="1" parent="0"/>
                <mxCell id="sjgwySI-xdDSsgkXz2g5-1" style="edgeStyle=none;html=1;exitX=0;exitY=0.5;exitDx=0;exitDy=0;entryX=1;entryY=0.5;entryDx=0;entryDy=0;endArrow=none;endFill=0;" parent="1" source="sjgwySI-xdDSsgkXz2g5-4" target="sjgwySI-xdDSsgkXz2g5-14" edge="1">
                    <mxGeometry relative="1" as="geometry"/>
                </mxCell>
                <mxCell id="sjgwySI-xdDSsgkXz2g5-2" style="edgeStyle=none;html=1;exitX=0;exitY=0;exitDx=0;exitDy=0;entryX=1;entryY=0.5;entryDx=0;entryDy=0;endArrow=none;endFill=0;" parent="1" source="sjgwySI-xdDSsgkXz2g5-4" target="sjgwySI-xdDSsgkXz2g5-13" edge="1">
                    <mxGeometry relative="1" as="geometry"/>
                </mxCell>
                <mxCell id="sjgwySI-xdDSsgkXz2g5-3" style="edgeStyle=none;html=1;exitX=0.5;exitY=1;exitDx=0;exitDy=0;fontSize=11;endArrow=none;endFill=0;" parent="1" source="sjgwySI-xdDSsgkXz2g5-4" edge="1">
                    <mxGeometry relative="1" as="geometry">
                        <mxPoint x="189.878787878788" y="220" as="targetPoint"/>
                    </mxGeometry>
                </mxCell>
                <mxCell id="sjgwySI-xdDSsgkXz2g5-4" value="Student" style="rounded=0;whiteSpace=wrap;html=1;" parent="1" vertex="1">
                    <mxGeometry x="150" y="130" width="80" height="40" as="geometry"/>
                </mxCell>
                <mxCell id="sjgwySI-xdDSsgkXz2g5-5" style="edgeStyle=none;html=1;exitX=1;exitY=1;exitDx=0;exitDy=0;entryX=0.75;entryY=0;entryDx=0;entryDy=0;endArrow=none;endFill=0;" parent="1" source="sjgwySI-xdDSsgkXz2g5-6" target="sjgwySI-xdDSsgkXz2g5-4" edge="1">
                    <mxGeometry relative="1" as="geometry"/>
                </mxCell>
                <mxCell id="sjgwySI-xdDSsgkXz2g5-6" value="&lt;u&gt;St_id&lt;/u&gt;" style="ellipse;whiteSpace=wrap;html=1;" parent="1" vertex="1">
                    <mxGeometry x="60" y="30" width="80" height="50" as="geometry"/>
                </mxCell>
                <mxCell id="sjgwySI-xdDSsgkXz2g5-7" style="edgeStyle=none;html=1;exitX=1;exitY=0;exitDx=0;exitDy=0;endArrow=none;endFill=0;" parent="1" source="sjgwySI-xdDSsgkXz2g5-10" target="sjgwySI-xdDSsgkXz2g5-12" edge="1">
                    <mxGeometry relative="1" as="geometry"/>
                </mxCell>
                <mxCell id="sjgwySI-xdDSsgkXz2g5-8" style="edgeStyle=none;html=1;exitX=1;exitY=1;exitDx=0;exitDy=0;endArrow=none;endFill=0;" parent="1" source="sjgwySI-xdDSsgkXz2g5-10" target="sjgwySI-xdDSsgkXz2g5-11" edge="1">
                    <mxGeometry relative="1" as="geometry"/>
                </mxCell>
                <mxCell id="sjgwySI-xdDSsgkXz2g5-9" style="edgeStyle=none;html=1;exitX=0;exitY=1;exitDx=0;exitDy=0;entryX=0.991;entryY=0.129;entryDx=0;entryDy=0;entryPerimeter=0;endArrow=none;endFill=0;" parent="1" source="sjgwySI-xdDSsgkXz2g5-10" target="sjgwySI-xdDSsgkXz2g5-4" edge="1">
                    <mxGeometry relative="1" as="geometry"/>
                </mxCell>
                <mxCell id="sjgwySI-xdDSsgkXz2g5-10" value="StudentName" style="ellipse;whiteSpace=wrap;html=1;" parent="1" vertex="1">
                    <mxGeometry x="249.9999999999999" y="60.00000000000006" width="80" height="50" as="geometry"/>
                </mxCell>
                <mxCell id="sjgwySI-xdDSsgkXz2g5-11" value="LName" style="ellipse;whiteSpace=wrap;html=1;" parent="1" vertex="1">
                    <mxGeometry x="209.9999999999999" y="5.684341886080802e-14" width="80" height="50" as="geometry"/>
                </mxCell>
                <mxCell id="sjgwySI-xdDSsgkXz2g5-12" value="FName" style="ellipse;whiteSpace=wrap;html=1;" parent="1" vertex="1">
                    <mxGeometry x="319.9999999999999" y="5.684341886080802e-14" width="80" height="50" as="geometry"/>
                </mxCell>
                <mxCell id="sjgwySI-xdDSsgkXz2g5-13" value="st_address" style="ellipse;whiteSpace=wrap;html=1;" parent="1" vertex="1">
                    <mxGeometry x="9.999999999999886" y="80.00000000000006" width="80" height="50" as="geometry"/>
                </mxCell>
                <mxCell id="sjgwySI-xdDSsgkXz2g5-14" value="st_age" style="ellipse;whiteSpace=wrap;html=1;" parent="1" vertex="1">
                    <mxGeometry x="9.999999999999886" y="140.00000000000006" width="80" height="50" as="geometry"/>
                </mxCell>
                <mxCell id="sjgwySI-xdDSsgkXz2g5-15" value="" style="ellipse;whiteSpace=wrap;html=1;fillColor=none;" parent="1" vertex="1">
                    <mxGeometry x="245" y="55" width="90" height="60" as="geometry"/>
                </mxCell>
                <mxCell id="sjgwySI-xdDSsgkXz2g5-16" value="Department" style="rounded=0;whiteSpace=wrap;html=1;" parent="1" vertex="1">
                    <mxGeometry x="595" y="140" width="80" height="40" as="geometry"/>
                </mxCell>
                <mxCell id="sjgwySI-xdDSsgkXz2g5-17" value="" style="edgeStyle=none;html=1;endArrow=none;endFill=0;" parent="1" source="sjgwySI-xdDSsgkXz2g5-18" target="sjgwySI-xdDSsgkXz2g5-16" edge="1">
                    <mxGeometry relative="1" as="geometry"/>
                </mxCell>
                <mxCell id="sjgwySI-xdDSsgkXz2g5-18" value="&lt;u&gt;dept_id&lt;/u&gt;" style="ellipse;whiteSpace=wrap;html=1;" parent="1" vertex="1">
                    <mxGeometry x="604.9999999999999" y="20.000000000000057" width="80" height="50" as="geometry"/>
                </mxCell>
                <mxCell id="sjgwySI-xdDSsgkXz2g5-19" style="edgeStyle=none;html=1;exitX=0.102;exitY=0.8;exitDx=0;exitDy=0;entryX=1;entryY=0.25;entryDx=0;entryDy=0;endArrow=none;endFill=0;exitPerimeter=0;" parent="1" source="sjgwySI-xdDSsgkXz2g5-20" target="sjgwySI-xdDSsgkXz2g5-16" edge="1">
                    <mxGeometry relative="1" as="geometry"/>
                </mxCell>
                <mxCell id="sjgwySI-xdDSsgkXz2g5-20" value="dep_name" style="ellipse;whiteSpace=wrap;html=1;" parent="1" vertex="1">
                    <mxGeometry x="734.9999999999999" y="55.00000000000006" width="80" height="50" as="geometry"/>
                </mxCell>
                <mxCell id="sjgwySI-xdDSsgkXz2g5-21" style="edgeStyle=none;html=1;exitX=0.25;exitY=1;exitDx=0;exitDy=0;entryX=0.5;entryY=0;entryDx=0;entryDy=0;fontSize=11;endArrow=none;endFill=0;" parent="1" source="sjgwySI-xdDSsgkXz2g5-22" target="sjgwySI-xdDSsgkXz2g5-73" edge="1">
                    <mxGeometry relative="1" as="geometry"/>
                </mxCell>
                <mxCell id="sjgwySI-xdDSsgkXz2g5-22" value="Course" style="rounded=0;whiteSpace=wrap;html=1;fillColor=none;" parent="1" vertex="1">
                    <mxGeometry x="150" y="320" width="80" height="40" as="geometry"/>
                </mxCell>
                <mxCell id="sjgwySI-xdDSsgkXz2g5-23" value="" style="edgeStyle=none;html=1;endArrow=none;endFill=0;" parent="1" source="sjgwySI-xdDSsgkXz2g5-24" target="sjgwySI-xdDSsgkXz2g5-22" edge="1">
                    <mxGeometry relative="1" as="geometry"/>
                </mxCell>
                <mxCell id="sjgwySI-xdDSsgkXz2g5-24" value="&lt;u&gt;crs_id&lt;/u&gt;" style="ellipse;whiteSpace=wrap;html=1;" parent="1" vertex="1">
                    <mxGeometry x="19.999999999999886" y="390.00000000000006" width="80" height="50" as="geometry"/>
                </mxCell>
                <mxCell id="sjgwySI-xdDSsgkXz2g5-25" style="edgeStyle=none;html=1;entryX=-0.015;entryY=0.662;entryDx=0;entryDy=0;entryPerimeter=0;endArrow=none;endFill=0;" parent="1" source="sjgwySI-xdDSsgkXz2g5-26" target="sjgwySI-xdDSsgkXz2g5-22" edge="1">
                    <mxGeometry relative="1" as="geometry"/>
                </mxCell>
                <mxCell id="sjgwySI-xdDSsgkXz2g5-26" value="crs_name" style="ellipse;whiteSpace=wrap;html=1;" parent="1" vertex="1">
                    <mxGeometry x="9.999999999999886" y="330.00000000000006" width="80" height="50" as="geometry"/>
                </mxCell>
                <mxCell id="sjgwySI-xdDSsgkXz2g5-27" style="edgeStyle=none;html=1;entryX=0.5;entryY=1;entryDx=0;entryDy=0;endArrow=none;endFill=0;" parent="1" source="sjgwySI-xdDSsgkXz2g5-28" target="sjgwySI-xdDSsgkXz2g5-22" edge="1">
                    <mxGeometry relative="1" as="geometry"/>
                </mxCell>
                <mxCell id="sjgwySI-xdDSsgkXz2g5-28" value="crs_duration" style="ellipse;whiteSpace=wrap;html=1;" parent="1" vertex="1">
                    <mxGeometry x="249.9999999999999" y="460.00000000000006" width="80" height="50" as="geometry"/>
                </mxCell>
                <mxCell id="sjgwySI-xdDSsgkXz2g5-29" style="edgeStyle=none;html=1;endArrow=none;endFill=0;" parent="1" source="sjgwySI-xdDSsgkXz2g5-30" target="sjgwySI-xdDSsgkXz2g5-22" edge="1">
                    <mxGeometry relative="1" as="geometry"/>
                </mxCell>
                <mxCell id="sjgwySI-xdDSsgkXz2g5-30" value="crs_Description" style="ellipse;whiteSpace=wrap;html=1;" parent="1" vertex="1">
                    <mxGeometry x="250" y="390" width="90" height="50" as="geometry"/>
                </mxCell>
                <mxCell id="sjgwySI-xdDSsgkXz2g5-31" value="" style="edgeStyle=none;html=1;fontSize=11;endArrow=none;endFill=0;" parent="1" source="sjgwySI-xdDSsgkXz2g5-33" target="sjgwySI-xdDSsgkXz2g5-22" edge="1">
                    <mxGeometry relative="1" as="geometry"/>
                </mxCell>
                <mxCell id="sjgwySI-xdDSsgkXz2g5-32" style="edgeStyle=none;html=1;exitX=0;exitY=0.5;exitDx=0;exitDy=0;fontSize=11;endArrow=none;endFill=0;entryX=0.975;entryY=0.402;entryDx=0;entryDy=0;entryPerimeter=0;" parent="1" source="sjgwySI-xdDSsgkXz2g5-33" target="sjgwySI-xdDSsgkXz2g5-34" edge="1">
                    <mxGeometry relative="1" as="geometry">
                        <mxPoint x="90.00000000000011" y="300" as="targetPoint"/>
                    </mxGeometry>
                </mxCell>
                <mxCell id="sjgwySI-xdDSsgkXz2g5-33" value="take" style="rhombus;whiteSpace=wrap;html=1;fontSize=11;fillColor=none;" parent="1" vertex="1">
                    <mxGeometry x="155" y="220" width="70" height="50" as="geometry"/>
                </mxCell>
                <mxCell id="sjgwySI-xdDSsgkXz2g5-34" value="grade" style="ellipse;whiteSpace=wrap;html=1;" parent="1" vertex="1">
                    <mxGeometry x="-10.000000000000114" y="230.00000000000006" width="80" height="50" as="geometry"/>
                </mxCell>
                <mxCell id="sjgwySI-xdDSsgkXz2g5-35" style="edgeStyle=none;html=1;exitX=0.25;exitY=1;exitDx=0;exitDy=0;fontSize=11;endArrow=none;endFill=0;" parent="1" source="sjgwySI-xdDSsgkXz2g5-43" target="sjgwySI-xdDSsgkXz2g5-47" edge="1">
                    <mxGeometry relative="1" as="geometry"/>
                </mxCell>
                <mxCell id="sjgwySI-xdDSsgkXz2g5-36" style="edgeStyle=none;html=1;exitX=0.5;exitY=1;exitDx=0;exitDy=0;fontSize=11;endArrow=none;endFill=0;" parent="1" source="sjgwySI-xdDSsgkXz2g5-43" target="sjgwySI-xdDSsgkXz2g5-44" edge="1">
                    <mxGeometry relative="1" as="geometry"/>
                </mxCell>
                <mxCell id="sjgwySI-xdDSsgkXz2g5-37" style="edgeStyle=none;html=1;exitX=0.75;exitY=1;exitDx=0;exitDy=0;entryX=0.222;entryY=0.084;entryDx=0;entryDy=0;entryPerimeter=0;fontSize=11;endArrow=none;endFill=0;" parent="1" source="sjgwySI-xdDSsgkXz2g5-43" target="sjgwySI-xdDSsgkXz2g5-45" edge="1">
                    <mxGeometry relative="1" as="geometry"/>
                </mxCell>
                <mxCell id="sjgwySI-xdDSsgkXz2g5-38" style="edgeStyle=none;html=1;exitX=1;exitY=0.75;exitDx=0;exitDy=0;entryX=0;entryY=0.5;entryDx=0;entryDy=0;fontSize=11;endArrow=none;endFill=0;" parent="1" source="sjgwySI-xdDSsgkXz2g5-43" target="sjgwySI-xdDSsgkXz2g5-46" edge="1">
                    <mxGeometry relative="1" as="geometry"/>
                </mxCell>
                <mxCell id="sjgwySI-xdDSsgkXz2g5-39" style="edgeStyle=none;html=1;exitX=1;exitY=0.25;exitDx=0;exitDy=0;entryX=0.006;entryY=0.602;entryDx=0;entryDy=0;entryPerimeter=0;fontSize=11;endArrow=none;endFill=0;" parent="1" source="sjgwySI-xdDSsgkXz2g5-43" target="sjgwySI-xdDSsgkXz2g5-48" edge="1">
                    <mxGeometry relative="1" as="geometry"/>
                </mxCell>
                <mxCell id="sjgwySI-xdDSsgkXz2g5-40" style="edgeStyle=none;html=1;exitX=1;exitY=0;exitDx=0;exitDy=0;entryX=0.006;entryY=0.581;entryDx=0;entryDy=0;entryPerimeter=0;fontSize=11;endArrow=none;endFill=0;" parent="1" source="sjgwySI-xdDSsgkXz2g5-43" target="sjgwySI-xdDSsgkXz2g5-49" edge="1">
                    <mxGeometry relative="1" as="geometry"/>
                </mxCell>
                <mxCell id="sjgwySI-xdDSsgkXz2g5-41" style="edgeStyle=none;html=1;exitX=0;exitY=0;exitDx=0;exitDy=0;fontSize=11;endArrow=none;endFill=0;entryX=0.5;entryY=1;entryDx=0;entryDy=0;" parent="1" source="sjgwySI-xdDSsgkXz2g5-43" target="sjgwySI-xdDSsgkXz2g5-57" edge="1">
                    <mxGeometry relative="1" as="geometry">
                        <mxPoint x="545" y="270" as="targetPoint"/>
                    </mxGeometry>
                </mxCell>
                <mxCell id="sjgwySI-xdDSsgkXz2g5-42" style="edgeStyle=none;html=1;exitX=0;exitY=0.5;exitDx=0;exitDy=0;entryX=1;entryY=0.5;entryDx=0;entryDy=0;fontSize=11;endArrow=none;endFill=0;" parent="1" source="sjgwySI-xdDSsgkXz2g5-43" target="sjgwySI-xdDSsgkXz2g5-63" edge="1">
                    <mxGeometry relative="1" as="geometry"/>
                </mxCell>
                <mxCell id="sjgwySI-xdDSsgkXz2g5-43" value="Instructor" style="rounded=0;whiteSpace=wrap;html=1;" parent="1" vertex="1">
                    <mxGeometry x="595" y="320" width="80" height="40" as="geometry"/>
                </mxCell>
                <mxCell id="sjgwySI-xdDSsgkXz2g5-44" value="ins_hourRate" style="ellipse;whiteSpace=wrap;html=1;" parent="1" vertex="1">
                    <mxGeometry x="595" y="420" width="90" height="50" as="geometry"/>
                </mxCell>
                <mxCell id="sjgwySI-xdDSsgkXz2g5-45" value="ins_salary" style="ellipse;whiteSpace=wrap;html=1;" parent="1" vertex="1">
                    <mxGeometry x="695" y="400" width="90" height="50" as="geometry"/>
                </mxCell>
                <mxCell id="sjgwySI-xdDSsgkXz2g5-46" value="ins_name" style="ellipse;whiteSpace=wrap;html=1;" parent="1" vertex="1">
                    <mxGeometry x="745" y="340" width="90" height="50" as="geometry"/>
                </mxCell>
                <mxCell id="sjgwySI-xdDSsgkXz2g5-47" value="ins_address" style="ellipse;whiteSpace=wrap;html=1;" parent="1" vertex="1">
                    <mxGeometry x="495" y="420" width="90" height="50" as="geometry"/>
                </mxCell>
                <mxCell id="sjgwySI-xdDSsgkXz2g5-48" value="ins_id" style="ellipse;whiteSpace=wrap;html=1;" parent="1" vertex="1">
                    <mxGeometry x="745" y="280" width="90" height="50" as="geometry"/>
                </mxCell>
                <mxCell id="sjgwySI-xdDSsgkXz2g5-49" value="ins_bouns" style="ellipse;whiteSpace=wrap;html=1;" parent="1" vertex="1">
                    <mxGeometry x="745" y="220" width="90" height="50" as="geometry"/>
                </mxCell>
                <mxCell id="sjgwySI-xdDSsgkXz2g5-50" value="M" style="text;html=1;align=center;verticalAlign=middle;resizable=0;points=[];autosize=1;strokeColor=none;fillColor=none;fontSize=11;" parent="1" vertex="1">
                    <mxGeometry x="190" y="290" width="30" height="30" as="geometry"/>
                </mxCell>
                <mxCell id="sjgwySI-xdDSsgkXz2g5-51" value="M" style="text;html=1;align=center;verticalAlign=middle;resizable=0;points=[];autosize=1;strokeColor=none;fillColor=none;fontSize=11;" parent="1" vertex="1">
                    <mxGeometry x="190" y="170" width="30" height="30" as="geometry"/>
                </mxCell>
                <mxCell id="sjgwySI-xdDSsgkXz2g5-52" value="" style="edgeStyle=none;html=1;fontSize=11;endArrow=none;endFill=0;exitX=0.5;exitY=1;exitDx=0;exitDy=0;" parent="1" source="sjgwySI-xdDSsgkXz2g5-54" target="sjgwySI-xdDSsgkXz2g5-43" edge="1">
                    <mxGeometry relative="1" as="geometry"/>
                </mxCell>
                <mxCell id="sjgwySI-xdDSsgkXz2g5-53" value="" style="edgeStyle=none;html=1;fontSize=11;endArrow=none;endFill=0;exitX=0.5;exitY=0;exitDx=0;exitDy=0;entryX=0.75;entryY=1;entryDx=0;entryDy=0;" parent="1" source="sjgwySI-xdDSsgkXz2g5-54" target="sjgwySI-xdDSsgkXz2g5-16" edge="1">
                    <mxGeometry relative="1" as="geometry"/>
                </mxCell>
                <mxCell id="sjgwySI-xdDSsgkXz2g5-54" value="Has" style="rhombus;whiteSpace=wrap;html=1;rounded=0;fontSize=11;fillColor=none;" parent="1" vertex="1">
                    <mxGeometry x="640" y="227.5" width="60" height="55" as="geometry"/>
                </mxCell>
                <mxCell id="sjgwySI-xdDSsgkXz2g5-55" value="M" style="text;html=1;align=center;verticalAlign=middle;resizable=0;points=[];autosize=1;strokeColor=none;fillColor=none;fontSize=11;" parent="1" vertex="1">
                    <mxGeometry x="630" y="290" width="30" height="30" as="geometry"/>
                </mxCell>
                <mxCell id="sjgwySI-xdDSsgkXz2g5-56" style="edgeStyle=none;html=1;exitX=0.5;exitY=0;exitDx=0;exitDy=0;entryX=0;entryY=1;entryDx=0;entryDy=0;fontSize=11;endArrow=none;endFill=0;" parent="1" source="sjgwySI-xdDSsgkXz2g5-57" target="sjgwySI-xdDSsgkXz2g5-16" edge="1">
                    <mxGeometry relative="1" as="geometry"/>
                </mxCell>
                <mxCell id="sjgwySI-xdDSsgkXz2g5-57" value="Manage" style="rhombus;whiteSpace=wrap;html=1;rounded=0;fontSize=11;fillColor=none;" parent="1" vertex="1">
                    <mxGeometry x="525" y="235" width="60" height="55" as="geometry"/>
                </mxCell>
                <mxCell id="sjgwySI-xdDSsgkXz2g5-58" value="1" style="text;html=1;align=center;verticalAlign=middle;resizable=0;points=[];autosize=1;strokeColor=none;fillColor=none;fontSize=11;" parent="1" vertex="1">
                    <mxGeometry x="565" y="300" width="30" height="30" as="geometry"/>
                </mxCell>
                <mxCell id="sjgwySI-xdDSsgkXz2g5-59" style="edgeStyle=none;html=1;exitX=0.5;exitY=1;exitDx=0;exitDy=0;entryX=0;entryY=0.5;entryDx=0;entryDy=0;fontSize=11;endArrow=none;endFill=0;" parent="1" source="sjgwySI-xdDSsgkXz2g5-60" target="sjgwySI-xdDSsgkXz2g5-57" edge="1">
                    <mxGeometry relative="1" as="geometry"/>
                </mxCell>
                <mxCell id="sjgwySI-xdDSsgkXz2g5-60" value="hiring_date" style="ellipse;whiteSpace=wrap;html=1;" parent="1" vertex="1">
                    <mxGeometry x="414" y="200" width="90" height="50" as="geometry"/>
                </mxCell>
                <mxCell id="sjgwySI-xdDSsgkXz2g5-61" style="edgeStyle=none;html=1;exitX=0;exitY=0.5;exitDx=0;exitDy=0;entryX=1;entryY=0.5;entryDx=0;entryDy=0;fontSize=11;endArrow=none;endFill=0;" parent="1" source="sjgwySI-xdDSsgkXz2g5-63" target="sjgwySI-xdDSsgkXz2g5-22" edge="1">
                    <mxGeometry relative="1" as="geometry"/>
                </mxCell>
                <mxCell id="sjgwySI-xdDSsgkXz2g5-62" value="" style="edgeStyle=none;html=1;fontSize=11;endArrow=none;endFill=0;" parent="1" source="sjgwySI-xdDSsgkXz2g5-63" target="sjgwySI-xdDSsgkXz2g5-66" edge="1">
                    <mxGeometry relative="1" as="geometry"/>
                </mxCell>
                <mxCell id="sjgwySI-xdDSsgkXz2g5-63" value="teach" style="rhombus;whiteSpace=wrap;html=1;rounded=0;fontSize=11;fillColor=none;" parent="1" vertex="1">
                    <mxGeometry x="380" y="320" width="60" height="55" as="geometry"/>
                </mxCell>
                <mxCell id="sjgwySI-xdDSsgkXz2g5-64" value="M" style="text;html=1;align=center;verticalAlign=middle;resizable=0;points=[];autosize=1;strokeColor=none;fillColor=none;fontSize=11;" parent="1" vertex="1">
                    <mxGeometry x="230" y="320" width="30" height="30" as="geometry"/>
                </mxCell>
                <mxCell id="sjgwySI-xdDSsgkXz2g5-65" value="M" style="text;html=1;align=center;verticalAlign=middle;resizable=0;points=[];autosize=1;strokeColor=none;fillColor=none;fontSize=11;" parent="1" vertex="1">
                    <mxGeometry x="555" y="332.5" width="30" height="30" as="geometry"/>
                </mxCell>
                <mxCell id="sjgwySI-xdDSsgkXz2g5-66" value="Evaluation" style="ellipse;whiteSpace=wrap;html=1;fontSize=11;fillColor=none;rounded=0;" parent="1" vertex="1">
                    <mxGeometry x="360" y="440" width="90" height="40" as="geometry"/>
                </mxCell>
                <mxCell id="sjgwySI-xdDSsgkXz2g5-67" style="edgeStyle=none;html=1;exitX=0.573;exitY=0.952;exitDx=0;exitDy=0;fontSize=11;endArrow=none;endFill=0;exitPerimeter=0;entryX=0.05;entryY=-0.063;entryDx=0;entryDy=0;entryPerimeter=0;" parent="1" source="sjgwySI-xdDSsgkXz2g5-57" target="sjgwySI-xdDSsgkXz2g5-43" edge="1">
                    <mxGeometry relative="1" as="geometry">
                        <mxPoint x="565" y="245" as="sourcePoint"/>
                        <mxPoint x="600" y="180" as="targetPoint"/>
                    </mxGeometry>
                </mxCell>
                <mxCell id="sjgwySI-xdDSsgkXz2g5-68" value="Topic" style="rounded=0;whiteSpace=wrap;html=1;fillColor=none;" parent="1" vertex="1">
                    <mxGeometry x="75" y="630" width="80" height="40" as="geometry"/>
                </mxCell>
                <mxCell id="sjgwySI-xdDSsgkXz2g5-69" style="edgeStyle=none;html=1;exitX=1;exitY=0.5;exitDx=0;exitDy=0;entryX=0;entryY=0.25;entryDx=0;entryDy=0;fontSize=11;endArrow=none;endFill=0;" parent="1" source="sjgwySI-xdDSsgkXz2g5-70" target="sjgwySI-xdDSsgkXz2g5-68" edge="1">
                    <mxGeometry relative="1" as="geometry"/>
                </mxCell>
                <mxCell id="sjgwySI-xdDSsgkXz2g5-70" value="top_name" style="ellipse;whiteSpace=wrap;html=1;" parent="1" vertex="1">
                    <mxGeometry x="-60.000000000000114" y="620" width="80" height="50" as="geometry"/>
                </mxCell>
                <mxCell id="sjgwySI-xdDSsgkXz2g5-71" style="edgeStyle=none;html=1;exitX=1;exitY=0.5;exitDx=0;exitDy=0;entryX=0.25;entryY=0;entryDx=0;entryDy=0;fontSize=11;endArrow=none;endFill=0;" parent="1" source="sjgwySI-xdDSsgkXz2g5-72" target="sjgwySI-xdDSsgkXz2g5-68" edge="1">
                    <mxGeometry relative="1" as="geometry"/>
                </mxCell>
                <mxCell id="sjgwySI-xdDSsgkXz2g5-72" value="top_id" style="ellipse;whiteSpace=wrap;html=1;" parent="1" vertex="1">
                    <mxGeometry x="-90" y="540" width="90" height="50" as="geometry"/>
                </mxCell>
                <mxCell id="sjgwySI-xdDSsgkXz2g5-73" value="calssified" style="rhombus;whiteSpace=wrap;html=1;rounded=0;fontSize=11;fillColor=none;" parent="1" vertex="1">
                    <mxGeometry x="100" y="500" width="60" height="55" as="geometry"/>
                </mxCell>
                <mxCell id="sjgwySI-xdDSsgkXz2g5-74" value="1" style="text;html=1;align=center;verticalAlign=middle;resizable=0;points=[];autosize=1;strokeColor=none;fillColor=none;fontSize=11;" parent="1" vertex="1">
                    <mxGeometry x="115" y="600" width="30" height="30" as="geometry"/>
                </mxCell>
                <mxCell id="sjgwySI-xdDSsgkXz2g5-75" value="M" style="text;html=1;align=center;verticalAlign=middle;resizable=0;points=[];autosize=1;strokeColor=none;fillColor=none;fontSize=11;" parent="1" vertex="1">
                    <mxGeometry x="160" y="370" width="30" height="30" as="geometry"/>
                </mxCell>
                <mxCell id="sjgwySI-xdDSsgkXz2g5-76" value="can instructor manage multiple departments or not?" style="text;html=1;align=center;verticalAlign=middle;whiteSpace=wrap;rounded=0;fontSize=10;fontStyle=1" parent="1" vertex="1">
                    <mxGeometry x="510" y="187.5" width="103" height="32.5" as="geometry"/>
                </mxCell>
                <mxCell id="sjgwySI-xdDSsgkXz2g5-77" value="can instructor have multiple departments or not?" style="text;html=1;align=center;verticalAlign=middle;whiteSpace=wrap;rounded=0;fontSize=10;fontStyle=1" parent="1" vertex="1">
                    <mxGeometry x="627" y="187.5" width="108" height="32.5" as="geometry"/>
                </mxCell>
                <mxCell id="sjgwySI-xdDSsgkXz2g5-78" style="edgeStyle=none;html=1;exitX=0.5;exitY=1;exitDx=0;exitDy=0;fontSize=11;endArrow=none;endFill=0;" parent="1" source="sjgwySI-xdDSsgkXz2g5-73" edge="1">
                    <mxGeometry relative="1" as="geometry">
                        <mxPoint x="140" y="565" as="sourcePoint"/>
                        <mxPoint x="120" y="630" as="targetPoint"/>
                    </mxGeometry>
                </mxCell>
                <mxCell id="sjgwySI-xdDSsgkXz2g5-79" style="edgeStyle=none;html=1;exitX=0.335;exitY=1.01;exitDx=0;exitDy=0;entryX=0.587;entryY=0.08;entryDx=0;entryDy=0;fontSize=11;endArrow=none;endFill=0;exitPerimeter=0;entryPerimeter=0;" parent="1" source="sjgwySI-xdDSsgkXz2g5-22" target="sjgwySI-xdDSsgkXz2g5-73" edge="1">
                    <mxGeometry relative="1" as="geometry">
                        <mxPoint x="180" y="370" as="sourcePoint"/>
                        <mxPoint x="140" y="510" as="targetPoint"/>
                    </mxGeometry>
                </mxCell>
                <mxCell id="sjgwySI-xdDSsgkXz2g5-80" value="Must each topic have courses or not?" style="text;html=1;align=center;verticalAlign=middle;whiteSpace=wrap;rounded=0;fontSize=10;fontStyle=1" parent="1" vertex="1">
                    <mxGeometry x="90" y="567.5" width="110" height="32.5" as="geometry"/>
                </mxCell>
                <mxCell id="sjgwySI-xdDSsgkXz2g5-81" value="" style="edgeStyle=none;html=1;fontSize=11;endArrow=none;endFill=0;exitX=0.606;exitY=0.098;exitDx=0;exitDy=0;exitPerimeter=0;" parent="1" source="sjgwySI-xdDSsgkXz2g5-54" edge="1">
                    <mxGeometry relative="1" as="geometry">
                        <mxPoint x="680" y="230" as="sourcePoint"/>
                        <mxPoint x="660" y="180" as="targetPoint"/>
                    </mxGeometry>
                </mxCell>
            </root>
        </mxGraphModel>
    </diagram>
    <diagram id="6K5vVqBjMdEz4tlNS_dm" name="problem-2">
        <mxGraphModel dx="1160" dy="1242" grid="1" gridSize="10" guides="1" tooltips="1" connect="1" arrows="1" fold="1" page="1" pageScale="1" pageWidth="827" pageHeight="1169" math="0" shadow="0">
            <root>
                <mxCell id="0"/>
                <mxCell id="1" parent="0"/>
                <mxCell id="EOCqa-VQq5XUCRkfxlt_-1" style="edgeStyle=none;html=1;exitX=0.5;exitY=1;exitDx=0;exitDy=0;entryX=0.5;entryY=0;entryDx=0;entryDy=0;fontSize=10;endArrow=none;endFill=0;" edge="1" parent="1" source="EOCqa-VQq5XUCRkfxlt_-2" target="EOCqa-VQq5XUCRkfxlt_-16">
                    <mxGeometry relative="1" as="geometry"/>
                </mxCell>
                <mxCell id="EOCqa-VQq5XUCRkfxlt_-2" value="name" style="ellipse;whiteSpace=wrap;html=1;fontSize=10;fillColor=none;" vertex="1" parent="1">
                    <mxGeometry x="212" y="145" width="53" height="34" as="geometry"/>
                </mxCell>
                <mxCell id="EOCqa-VQq5XUCRkfxlt_-3" style="edgeStyle=none;html=1;exitX=0.424;exitY=-0.033;exitDx=0;exitDy=0;entryX=1;entryY=1;entryDx=0;entryDy=0;fontSize=10;endArrow=none;endFill=0;exitPerimeter=0;" edge="1" parent="1" source="EOCqa-VQq5XUCRkfxlt_-20" target="EOCqa-VQq5XUCRkfxlt_-8">
                    <mxGeometry relative="1" as="geometry">
                        <mxPoint x="169.5" y="167" as="sourcePoint"/>
                    </mxGeometry>
                </mxCell>
                <mxCell id="EOCqa-VQq5XUCRkfxlt_-4" style="edgeStyle=none;html=1;exitX=-0.054;exitY=0.545;exitDx=0;exitDy=0;entryX=1;entryY=0.5;entryDx=0;entryDy=0;fontSize=10;endArrow=none;endFill=0;exitPerimeter=0;" edge="1" parent="1" source="EOCqa-VQq5XUCRkfxlt_-20" target="EOCqa-VQq5XUCRkfxlt_-9">
                    <mxGeometry relative="1" as="geometry">
                        <mxPoint x="142.99999999999932" y="185" as="sourcePoint"/>
                    </mxGeometry>
                </mxCell>
                <mxCell id="EOCqa-VQq5XUCRkfxlt_-5" style="edgeStyle=none;html=1;exitX=0.928;exitY=0.765;exitDx=0;exitDy=0;entryX=0;entryY=0;entryDx=0;entryDy=0;fontSize=10;endArrow=none;endFill=0;exitPerimeter=0;" edge="1" parent="1" source="EOCqa-VQq5XUCRkfxlt_-19" target="EOCqa-VQq5XUCRkfxlt_-16">
                    <mxGeometry relative="1" as="geometry">
                        <mxPoint x="188.32845046160367" y="197.66641212871514" as="sourcePoint"/>
                    </mxGeometry>
                </mxCell>
                <mxCell id="EOCqa-VQq5XUCRkfxlt_-6" style="edgeStyle=none;html=1;exitX=1;exitY=0.5;exitDx=0;exitDy=0;entryX=0.006;entryY=0.633;entryDx=0;entryDy=0;entryPerimeter=0;fontSize=10;endArrow=none;endFill=0;" edge="1" parent="1" source="EOCqa-VQq5XUCRkfxlt_-7" target="EOCqa-VQq5XUCRkfxlt_-16">
                    <mxGeometry relative="1" as="geometry"/>
                </mxCell>
                <mxCell id="EOCqa-VQq5XUCRkfxlt_-7" value="phone" style="ellipse;whiteSpace=wrap;html=1;fontSize=10;fillColor=none;" vertex="1" parent="1">
                    <mxGeometry x="106" y="220" width="56" height="36" as="geometry"/>
                </mxCell>
                <mxCell id="EOCqa-VQq5XUCRkfxlt_-8" value="city" style="ellipse;whiteSpace=wrap;html=1;fontSize=10;fillColor=none;" vertex="1" parent="1">
                    <mxGeometry x="111" y="116" width="51" height="32" as="geometry"/>
                </mxCell>
                <mxCell id="EOCqa-VQq5XUCRkfxlt_-9" value="st" style="ellipse;whiteSpace=wrap;html=1;fontSize=10;fillColor=none;" vertex="1" parent="1">
                    <mxGeometry x="60" y="164" width="51" height="35" as="geometry"/>
                </mxCell>
                <mxCell id="EOCqa-VQq5XUCRkfxlt_-10" style="edgeStyle=none;html=1;exitX=0.5;exitY=1;exitDx=0;exitDy=0;entryX=0.5;entryY=0;entryDx=0;entryDy=0;fontSize=10;endArrow=none;endFill=0;startArrow=none;" edge="1" parent="1" source="EOCqa-VQq5XUCRkfxlt_-47" target="EOCqa-VQq5XUCRkfxlt_-42">
                    <mxGeometry relative="1" as="geometry"/>
                </mxCell>
                <mxCell id="EOCqa-VQq5XUCRkfxlt_-11" value="" style="edgeStyle=none;html=1;fontSize=10;endArrow=none;endFill=0;" edge="1" parent="1" source="EOCqa-VQq5XUCRkfxlt_-16" target="EOCqa-VQq5XUCRkfxlt_-53">
                    <mxGeometry relative="1" as="geometry"/>
                </mxCell>
                <mxCell id="EOCqa-VQq5XUCRkfxlt_-12" value="M" style="edgeLabel;html=1;align=center;verticalAlign=middle;resizable=0;points=[];fontSize=10;" vertex="1" connectable="0" parent="EOCqa-VQq5XUCRkfxlt_-11">
                    <mxGeometry x="-0.7244" y="-2" relative="1" as="geometry">
                        <mxPoint as="offset"/>
                    </mxGeometry>
                </mxCell>
                <mxCell id="EOCqa-VQq5XUCRkfxlt_-13" value="" style="edgeStyle=none;html=1;fontSize=10;endArrow=none;endFill=0;" edge="1" parent="1" source="EOCqa-VQq5XUCRkfxlt_-16" target="EOCqa-VQq5XUCRkfxlt_-56">
                    <mxGeometry relative="1" as="geometry"/>
                </mxCell>
                <mxCell id="EOCqa-VQq5XUCRkfxlt_-14" value="1" style="edgeLabel;html=1;align=center;verticalAlign=middle;resizable=0;points=[];fontSize=10;" vertex="1" connectable="0" parent="EOCqa-VQq5XUCRkfxlt_-13">
                    <mxGeometry x="-0.6355" y="1" relative="1" as="geometry">
                        <mxPoint x="-11" y="-8" as="offset"/>
                    </mxGeometry>
                </mxCell>
                <mxCell id="EOCqa-VQq5XUCRkfxlt_-15" style="edgeStyle=none;html=1;entryX=0.901;entryY=0.419;entryDx=0;entryDy=0;entryPerimeter=0;fontSize=10;endArrow=none;endFill=0;exitX=0.007;exitY=0.38;exitDx=0;exitDy=0;exitPerimeter=0;" edge="1" parent="1" source="EOCqa-VQq5XUCRkfxlt_-31" target="EOCqa-VQq5XUCRkfxlt_-56">
                    <mxGeometry relative="1" as="geometry">
                        <mxPoint x="306" y="232" as="sourcePoint"/>
                    </mxGeometry>
                </mxCell>
                <mxCell id="EOCqa-VQq5XUCRkfxlt_-16" value="musician" style="rounded=0;whiteSpace=wrap;html=1;fontSize=10;fillColor=none;" vertex="1" parent="1">
                    <mxGeometry x="237" y="220" width="70" height="33" as="geometry"/>
                </mxCell>
                <mxCell id="EOCqa-VQq5XUCRkfxlt_-17" style="edgeStyle=none;html=1;exitX=0.5;exitY=1;exitDx=0;exitDy=0;entryX=0.822;entryY=-0.013;entryDx=0;entryDy=0;entryPerimeter=0;fontSize=10;endArrow=none;endFill=0;" edge="1" parent="1" source="EOCqa-VQq5XUCRkfxlt_-18" target="EOCqa-VQq5XUCRkfxlt_-16">
                    <mxGeometry relative="1" as="geometry"/>
                </mxCell>
                <mxCell id="EOCqa-VQq5XUCRkfxlt_-18" value="&lt;u&gt;id&lt;/u&gt;" style="ellipse;whiteSpace=wrap;html=1;fontSize=10;fillColor=none;" vertex="1" parent="1">
                    <mxGeometry x="290" y="154" width="53" height="34" as="geometry"/>
                </mxCell>
                <mxCell id="EOCqa-VQq5XUCRkfxlt_-19" value="" style="ellipse;whiteSpace=wrap;html=1;fontSize=10;fillColor=none;" vertex="1" parent="1">
                    <mxGeometry x="139" y="165" width="56" height="34" as="geometry"/>
                </mxCell>
                <mxCell id="EOCqa-VQq5XUCRkfxlt_-20" value="address" style="ellipse;whiteSpace=wrap;html=1;fontSize=10;fillColor=none;" vertex="1" parent="1">
                    <mxGeometry x="141.5" y="166.5" width="51" height="31" as="geometry"/>
                </mxCell>
                <mxCell id="EOCqa-VQq5XUCRkfxlt_-21" value="instrument" style="rounded=0;whiteSpace=wrap;html=1;fontSize=10;fillColor=none;" vertex="1" parent="1">
                    <mxGeometry x="237" y="397" width="70" height="33" as="geometry"/>
                </mxCell>
                <mxCell id="EOCqa-VQq5XUCRkfxlt_-22" style="edgeStyle=none;html=1;exitX=1;exitY=0.5;exitDx=0;exitDy=0;entryX=0;entryY=0.25;entryDx=0;entryDy=0;fontSize=10;endArrow=none;endFill=0;" edge="1" parent="1" source="EOCqa-VQq5XUCRkfxlt_-23" target="EOCqa-VQq5XUCRkfxlt_-21">
                    <mxGeometry relative="1" as="geometry"/>
                </mxCell>
                <mxCell id="EOCqa-VQq5XUCRkfxlt_-23" value="m_key" style="ellipse;whiteSpace=wrap;html=1;fontSize=10;fillColor=none;" vertex="1" parent="1">
                    <mxGeometry x="106" y="370" width="56" height="36" as="geometry"/>
                </mxCell>
                <mxCell id="EOCqa-VQq5XUCRkfxlt_-24" style="edgeStyle=none;html=1;exitX=1;exitY=0.5;exitDx=0;exitDy=0;fontSize=10;endArrow=none;endFill=0;" edge="1" parent="1" source="EOCqa-VQq5XUCRkfxlt_-25" target="EOCqa-VQq5XUCRkfxlt_-21">
                    <mxGeometry relative="1" as="geometry"/>
                </mxCell>
                <mxCell id="EOCqa-VQq5XUCRkfxlt_-25" value="&lt;u&gt;name&lt;/u&gt;" style="ellipse;whiteSpace=wrap;html=1;fontSize=10;fillColor=none;" vertex="1" parent="1">
                    <mxGeometry x="108.5" y="422" width="56" height="36" as="geometry"/>
                </mxCell>
                <mxCell id="EOCqa-VQq5XUCRkfxlt_-26" style="edgeStyle=none;html=1;exitX=0.5;exitY=0;exitDx=0;exitDy=0;fontSize=10;endArrow=none;endFill=0;entryX=0.385;entryY=1.001;entryDx=0;entryDy=0;entryPerimeter=0;" edge="1" parent="1" source="EOCqa-VQq5XUCRkfxlt_-31" target="EOCqa-VQq5XUCRkfxlt_-32">
                    <mxGeometry relative="1" as="geometry">
                        <mxPoint x="603.1428687686011" y="205.52382114955356" as="targetPoint"/>
                    </mxGeometry>
                </mxCell>
                <mxCell id="EOCqa-VQq5XUCRkfxlt_-27" style="edgeStyle=none;html=1;exitX=0.25;exitY=0;exitDx=0;exitDy=0;fontSize=10;endArrow=none;endFill=0;entryX=0.5;entryY=1;entryDx=0;entryDy=0;" edge="1" parent="1" source="EOCqa-VQq5XUCRkfxlt_-31" target="EOCqa-VQq5XUCRkfxlt_-35">
                    <mxGeometry relative="1" as="geometry">
                        <mxPoint x="555.5238211495536" y="192.19048781622018" as="targetPoint"/>
                    </mxGeometry>
                </mxCell>
                <mxCell id="EOCqa-VQq5XUCRkfxlt_-28" value="" style="edgeStyle=none;html=1;fontSize=10;endArrow=none;endFill=0;" edge="1" parent="1" source="EOCqa-VQq5XUCRkfxlt_-31" target="EOCqa-VQq5XUCRkfxlt_-45">
                    <mxGeometry relative="1" as="geometry"/>
                </mxCell>
                <mxCell id="EOCqa-VQq5XUCRkfxlt_-29" value="1" style="edgeLabel;html=1;align=center;verticalAlign=middle;resizable=0;points=[];fontSize=10;" vertex="1" connectable="0" parent="EOCqa-VQq5XUCRkfxlt_-28">
                    <mxGeometry x="-0.3535" relative="1" as="geometry">
                        <mxPoint x="-4" y="-1" as="offset"/>
                    </mxGeometry>
                </mxCell>
                <mxCell id="EOCqa-VQq5XUCRkfxlt_-30" value="" style="edgeStyle=none;html=1;fontSize=10;endArrow=none;endFill=0;" edge="1" parent="1" source="EOCqa-VQq5XUCRkfxlt_-31" target="EOCqa-VQq5XUCRkfxlt_-45">
                    <mxGeometry relative="1" as="geometry"/>
                </mxCell>
                <mxCell id="EOCqa-VQq5XUCRkfxlt_-31" value="Album" style="rounded=0;whiteSpace=wrap;html=1;fontSize=10;fillColor=none;" vertex="1" parent="1">
                    <mxGeometry x="559" y="218.5" width="70" height="33" as="geometry"/>
                </mxCell>
                <mxCell id="EOCqa-VQq5XUCRkfxlt_-32" value="&lt;u&gt;title&lt;/u&gt;" style="ellipse;whiteSpace=wrap;html=1;fontSize=10;fillColor=none;" vertex="1" parent="1">
                    <mxGeometry x="593" y="163.5" width="53" height="34" as="geometry"/>
                </mxCell>
                <mxCell id="EOCqa-VQq5XUCRkfxlt_-33" style="edgeStyle=none;html=1;exitX=0;exitY=0.5;exitDx=0;exitDy=0;entryX=1;entryY=0.5;entryDx=0;entryDy=0;fontSize=10;endArrow=none;endFill=0;" edge="1" parent="1" source="EOCqa-VQq5XUCRkfxlt_-34" target="EOCqa-VQq5XUCRkfxlt_-31">
                    <mxGeometry relative="1" as="geometry"/>
                </mxCell>
                <mxCell id="EOCqa-VQq5XUCRkfxlt_-34" value="cr_date" style="ellipse;whiteSpace=wrap;html=1;fontSize=10;fillColor=none;" vertex="1" parent="1">
                    <mxGeometry x="652" y="219" width="53" height="34" as="geometry"/>
                </mxCell>
                <mxCell id="EOCqa-VQq5XUCRkfxlt_-35" value="album_id" style="ellipse;whiteSpace=wrap;html=1;fontSize=10;fillColor=none;" vertex="1" parent="1">
                    <mxGeometry x="523" y="155" width="53" height="34" as="geometry"/>
                </mxCell>
                <mxCell id="EOCqa-VQq5XUCRkfxlt_-36" style="edgeStyle=none;html=1;exitX=0.5;exitY=1;exitDx=0;exitDy=0;entryX=0.5;entryY=0;entryDx=0;entryDy=0;fontSize=10;endArrow=none;endFill=0;" edge="1" parent="1" source="EOCqa-VQq5XUCRkfxlt_-38" target="EOCqa-VQq5XUCRkfxlt_-39">
                    <mxGeometry relative="1" as="geometry"/>
                </mxCell>
                <mxCell id="EOCqa-VQq5XUCRkfxlt_-37" style="edgeStyle=none;html=1;exitX=1;exitY=0.5;exitDx=0;exitDy=0;entryX=0;entryY=0.5;entryDx=0;entryDy=0;fontSize=10;endArrow=none;endFill=0;" edge="1" parent="1" source="EOCqa-VQq5XUCRkfxlt_-38" target="EOCqa-VQq5XUCRkfxlt_-40">
                    <mxGeometry relative="1" as="geometry"/>
                </mxCell>
                <mxCell id="EOCqa-VQq5XUCRkfxlt_-38" value="song" style="rounded=0;whiteSpace=wrap;html=1;fontSize=10;fillColor=none;" vertex="1" parent="1">
                    <mxGeometry x="559" y="397" width="70" height="33" as="geometry"/>
                </mxCell>
                <mxCell id="EOCqa-VQq5XUCRkfxlt_-39" value="&lt;u&gt;title&lt;/u&gt;" style="ellipse;whiteSpace=wrap;html=1;fontSize=10;fillColor=none;" vertex="1" parent="1">
                    <mxGeometry x="567.5" y="468" width="53" height="34" as="geometry"/>
                </mxCell>
                <mxCell id="EOCqa-VQq5XUCRkfxlt_-40" value="author" style="ellipse;whiteSpace=wrap;html=1;fontSize=10;fillColor=none;" vertex="1" parent="1">
                    <mxGeometry x="669" y="439" width="53" height="34" as="geometry"/>
                </mxCell>
                <mxCell id="EOCqa-VQq5XUCRkfxlt_-41" style="edgeStyle=none;html=1;exitX=0.5;exitY=1;exitDx=0;exitDy=0;entryX=0.5;entryY=0;entryDx=0;entryDy=0;fontSize=10;endArrow=none;endFill=0;startArrow=none;" edge="1" parent="1" source="EOCqa-VQq5XUCRkfxlt_-49" target="EOCqa-VQq5XUCRkfxlt_-21">
                    <mxGeometry relative="1" as="geometry"/>
                </mxCell>
                <mxCell id="EOCqa-VQq5XUCRkfxlt_-42" value="play" style="rhombus;whiteSpace=wrap;html=1;fontSize=10;fillColor=none;" vertex="1" parent="1">
                    <mxGeometry x="240" y="293" width="60" height="51" as="geometry"/>
                </mxCell>
                <mxCell id="EOCqa-VQq5XUCRkfxlt_-43" value="" style="edgeStyle=none;html=1;fontSize=10;endArrow=none;endFill=0;" edge="1" parent="1" source="EOCqa-VQq5XUCRkfxlt_-45" target="EOCqa-VQq5XUCRkfxlt_-38">
                    <mxGeometry relative="1" as="geometry"/>
                </mxCell>
                <mxCell id="EOCqa-VQq5XUCRkfxlt_-44" value="M" style="edgeLabel;html=1;align=center;verticalAlign=middle;resizable=0;points=[];fontSize=10;" vertex="1" connectable="0" parent="EOCqa-VQq5XUCRkfxlt_-43">
                    <mxGeometry x="0.4637" relative="1" as="geometry">
                        <mxPoint as="offset"/>
                    </mxGeometry>
                </mxCell>
                <mxCell id="EOCqa-VQq5XUCRkfxlt_-45" value="has" style="rhombus;whiteSpace=wrap;html=1;fontSize=10;fillColor=none;rounded=0;" vertex="1" parent="1">
                    <mxGeometry x="567.5" y="285" width="51" height="49" as="geometry"/>
                </mxCell>
                <mxCell id="EOCqa-VQq5XUCRkfxlt_-46" value="" style="edgeStyle=none;html=1;exitX=0.5;exitY=1;exitDx=0;exitDy=0;entryX=0.5;entryY=0;entryDx=0;entryDy=0;fontSize=10;endArrow=none;endFill=0;" edge="1" parent="1" source="EOCqa-VQq5XUCRkfxlt_-16" target="EOCqa-VQq5XUCRkfxlt_-47">
                    <mxGeometry relative="1" as="geometry">
                        <mxPoint x="272" y="253" as="sourcePoint"/>
                        <mxPoint x="270" y="293" as="targetPoint"/>
                    </mxGeometry>
                </mxCell>
                <mxCell id="EOCqa-VQq5XUCRkfxlt_-47" value="M" style="text;html=1;align=center;verticalAlign=middle;resizable=0;points=[];autosize=1;strokeColor=none;fillColor=none;fontSize=10;" vertex="1" parent="1">
                    <mxGeometry x="259" y="256" width="26" height="24" as="geometry"/>
                </mxCell>
                <mxCell id="EOCqa-VQq5XUCRkfxlt_-48" value="" style="edgeStyle=none;html=1;exitX=0.5;exitY=1;exitDx=0;exitDy=0;entryX=0.5;entryY=0;entryDx=0;entryDy=0;fontSize=10;endArrow=none;endFill=0;" edge="1" parent="1" source="EOCqa-VQq5XUCRkfxlt_-42" target="EOCqa-VQq5XUCRkfxlt_-49">
                    <mxGeometry relative="1" as="geometry">
                        <mxPoint x="270" y="343.9999999999999" as="sourcePoint"/>
                        <mxPoint x="272" y="397" as="targetPoint"/>
                    </mxGeometry>
                </mxCell>
                <mxCell id="EOCqa-VQq5XUCRkfxlt_-49" value="M" style="text;html=1;align=center;verticalAlign=middle;resizable=0;points=[];autosize=1;strokeColor=none;fillColor=none;fontSize=10;strokeWidth=4;" vertex="1" parent="1">
                    <mxGeometry x="257" y="368" width="26" height="24" as="geometry"/>
                </mxCell>
                <mxCell id="EOCqa-VQq5XUCRkfxlt_-50" value="" style="edgeStyle=none;html=1;fontSize=10;endArrow=none;endFill=0;" edge="1" parent="1">
                    <mxGeometry relative="1" as="geometry">
                        <mxPoint x="597" y="252" as="sourcePoint"/>
                        <mxPoint x="597" y="288" as="targetPoint"/>
                    </mxGeometry>
                </mxCell>
                <mxCell id="EOCqa-VQq5XUCRkfxlt_-51" style="edgeStyle=none;html=1;entryX=0;entryY=0.5;entryDx=0;entryDy=0;fontSize=10;endArrow=none;endFill=0;" edge="1" parent="1" source="EOCqa-VQq5XUCRkfxlt_-53" target="EOCqa-VQq5XUCRkfxlt_-38">
                    <mxGeometry relative="1" as="geometry"/>
                </mxCell>
                <mxCell id="EOCqa-VQq5XUCRkfxlt_-52" value="M" style="edgeLabel;html=1;align=center;verticalAlign=middle;resizable=0;points=[];fontSize=10;" vertex="1" connectable="0" parent="EOCqa-VQq5XUCRkfxlt_-51">
                    <mxGeometry x="0.6882" y="-1" relative="1" as="geometry">
                        <mxPoint as="offset"/>
                    </mxGeometry>
                </mxCell>
                <mxCell id="EOCqa-VQq5XUCRkfxlt_-53" value="perform" style="rhombus;whiteSpace=wrap;html=1;fontSize=10;fillColor=none;rounded=0;" vertex="1" parent="1">
                    <mxGeometry x="413.5" y="298.5" width="48.5" height="47.5" as="geometry"/>
                </mxCell>
                <mxCell id="EOCqa-VQq5XUCRkfxlt_-54" value="" style="edgeStyle=none;html=1;fontSize=10;endArrow=none;endFill=0;" edge="1" parent="1" source="EOCqa-VQq5XUCRkfxlt_-56" target="EOCqa-VQq5XUCRkfxlt_-31">
                    <mxGeometry relative="1" as="geometry"/>
                </mxCell>
                <mxCell id="EOCqa-VQq5XUCRkfxlt_-55" value="M" style="edgeLabel;html=1;align=center;verticalAlign=middle;resizable=0;points=[];fontSize=10;" vertex="1" connectable="0" parent="EOCqa-VQq5XUCRkfxlt_-54">
                    <mxGeometry x="0.5633" relative="1" as="geometry">
                        <mxPoint as="offset"/>
                    </mxGeometry>
                </mxCell>
                <mxCell id="EOCqa-VQq5XUCRkfxlt_-56" value="produce" style="rhombus;whiteSpace=wrap;html=1;fontSize=10;fillColor=none;rounded=0;" vertex="1" parent="1">
                    <mxGeometry x="397" y="207.5" width="58" height="48.5" as="geometry"/>
                </mxCell>
                <mxCell id="EOCqa-VQq5XUCRkfxlt_-57" value="&lt;b&gt;Must each song have an album?&lt;/b&gt;" style="text;html=1;align=center;verticalAlign=middle;resizable=0;points=[];autosize=1;strokeColor=none;fillColor=none;fontSize=10;strokeWidth=0;" vertex="1" parent="1">
                    <mxGeometry x="556" y="341" width="172" height="24" as="geometry"/>
                </mxCell>
            </root>
        </mxGraphModel>
    </diagram>
    <diagram id="CaJsl_0N3PLhZ4Pi23Rv" name="problem-4">
        <mxGraphModel dx="982" dy="1051" grid="0" gridSize="10" guides="1" tooltips="1" connect="1" arrows="1" fold="1" page="1" pageScale="1" pageWidth="827" pageHeight="1169" math="0" shadow="0">
            <root>
                <mxCell id="0"/>
                <mxCell id="1" parent="0"/>
                <mxCell id="134" style="edgeStyle=none;html=1;exitX=0.75;exitY=0;exitDx=0;exitDy=0;endArrow=none;endFill=0;entryX=0;entryY=0.5;entryDx=0;entryDy=0;" parent="1" source="67" target="135" edge="1">
                    <mxGeometry relative="1" as="geometry">
                        <mxPoint x="427.66667683919286" y="176.66665649414062" as="targetPoint"/>
                    </mxGeometry>
                </mxCell>
                <mxCell id="67" value="wards" style="whiteSpace=wrap;html=1;" parent="1" vertex="1">
                    <mxGeometry x="286" y="230" width="80" height="38" as="geometry"/>
                </mxCell>
                <mxCell id="72" style="edgeStyle=none;html=1;entryX=0.25;entryY=0;entryDx=0;entryDy=0;endArrow=none;endFill=0;" parent="1" source="69" target="67" edge="1">
                    <mxGeometry relative="1" as="geometry"/>
                </mxCell>
                <mxCell id="69" value="&lt;u&gt;ward_id&lt;/u&gt;" style="ellipse;whiteSpace=wrap;html=1;" parent="1" vertex="1">
                    <mxGeometry x="205" y="160" width="73" height="42" as="geometry"/>
                </mxCell>
                <mxCell id="71" value="" style="edgeStyle=none;html=1;endArrow=none;endFill=0;" parent="1" source="70" target="67" edge="1">
                    <mxGeometry relative="1" as="geometry"/>
                </mxCell>
                <mxCell id="70" value="name" style="ellipse;whiteSpace=wrap;html=1;" parent="1" vertex="1">
                    <mxGeometry x="301" y="151" width="73" height="42" as="geometry"/>
                </mxCell>
                <mxCell id="88" value="" style="edgeStyle=none;html=1;endArrow=none;endFill=0;" parent="1" source="73" target="87" edge="1">
                    <mxGeometry relative="1" as="geometry"/>
                </mxCell>
                <mxCell id="92" value="M" style="edgeLabel;html=1;align=center;verticalAlign=middle;resizable=0;points=[];" parent="88" vertex="1" connectable="0">
                    <mxGeometry x="-0.3867" relative="1" as="geometry">
                        <mxPoint as="offset"/>
                    </mxGeometry>
                </mxCell>
                <mxCell id="100" style="edgeStyle=none;html=1;exitX=0.75;exitY=0;exitDx=0;exitDy=0;endArrow=none;endFill=0;entryX=0;entryY=0.5;entryDx=0;entryDy=0;" parent="1" source="73" target="101" edge="1">
                    <mxGeometry relative="1" as="geometry">
                        <mxPoint x="448.66670735677087" y="335.3333435058594" as="targetPoint"/>
                    </mxGeometry>
                </mxCell>
                <mxCell id="73" value="patient" style="whiteSpace=wrap;html=1;" parent="1" vertex="1">
                    <mxGeometry x="286" y="404" width="80" height="38" as="geometry"/>
                </mxCell>
                <mxCell id="77" style="edgeStyle=none;html=1;exitX=1;exitY=0.5;exitDx=0;exitDy=0;entryX=0;entryY=0;entryDx=0;entryDy=0;endArrow=none;endFill=0;" parent="1" source="74" target="73" edge="1">
                    <mxGeometry relative="1" as="geometry"/>
                </mxCell>
                <mxCell id="74" value="&lt;u&gt;patient_id&lt;/u&gt;" style="ellipse;whiteSpace=wrap;html=1;" parent="1" vertex="1">
                    <mxGeometry x="162" y="347" width="73" height="42" as="geometry"/>
                </mxCell>
                <mxCell id="78" style="edgeStyle=none;html=1;exitX=1;exitY=0.5;exitDx=0;exitDy=0;entryX=0;entryY=0.5;entryDx=0;entryDy=0;endArrow=none;endFill=0;" parent="1" source="75" target="73" edge="1">
                    <mxGeometry relative="1" as="geometry"/>
                </mxCell>
                <mxCell id="75" value="name" style="ellipse;whiteSpace=wrap;html=1;" parent="1" vertex="1">
                    <mxGeometry x="156" y="402" width="73" height="42" as="geometry"/>
                </mxCell>
                <mxCell id="79" style="edgeStyle=none;html=1;exitX=1;exitY=0;exitDx=0;exitDy=0;endArrow=none;endFill=0;entryX=0;entryY=0.75;entryDx=0;entryDy=0;" parent="1" source="76" target="73" edge="1">
                    <mxGeometry relative="1" as="geometry">
                        <mxPoint x="283.2069007610453" y="445.41379310344826" as="targetPoint"/>
                    </mxGeometry>
                </mxCell>
                <mxCell id="76" value="date_of_birth" style="ellipse;whiteSpace=wrap;html=1;" parent="1" vertex="1">
                    <mxGeometry x="164" y="475" width="78" height="42" as="geometry"/>
                </mxCell>
                <mxCell id="82" style="edgeStyle=none;html=1;exitX=0.5;exitY=0;exitDx=0;exitDy=0;entryX=0.5;entryY=1;entryDx=0;entryDy=0;endArrow=none;endFill=0;" parent="1" source="80" target="67" edge="1">
                    <mxGeometry relative="1" as="geometry"/>
                </mxCell>
                <mxCell id="84" value="1" style="edgeLabel;html=1;align=center;verticalAlign=middle;resizable=0;points=[];" parent="82" vertex="1" connectable="0">
                    <mxGeometry x="0.4466" y="-3" relative="1" as="geometry">
                        <mxPoint y="5" as="offset"/>
                    </mxGeometry>
                </mxCell>
                <mxCell id="83" style="edgeStyle=none;html=1;exitX=0.5;exitY=1;exitDx=0;exitDy=0;entryX=0.5;entryY=0;entryDx=0;entryDy=0;endArrow=none;endFill=0;" parent="1" source="80" target="73" edge="1">
                    <mxGeometry relative="1" as="geometry"/>
                </mxCell>
                <mxCell id="85" value="M" style="edgeLabel;html=1;align=center;verticalAlign=middle;resizable=0;points=[];" parent="83" vertex="1" connectable="0">
                    <mxGeometry x="0.3935" y="-1" relative="1" as="geometry">
                        <mxPoint as="offset"/>
                    </mxGeometry>
                </mxCell>
                <mxCell id="80" value="host" style="rhombus;whiteSpace=wrap;html=1;" parent="1" vertex="1">
                    <mxGeometry x="293.5" y="308" width="65" height="57" as="geometry"/>
                </mxCell>
                <mxCell id="94" value="" style="edgeStyle=none;html=1;endArrow=none;endFill=0;" parent="1" source="86" target="93" edge="1">
                    <mxGeometry relative="1" as="geometry"/>
                </mxCell>
                <mxCell id="96" value="" style="edgeStyle=none;html=1;endArrow=none;endFill=0;" parent="1" source="86" target="95" edge="1">
                    <mxGeometry relative="1" as="geometry"/>
                </mxCell>
                <mxCell id="86" value="consultant" style="whiteSpace=wrap;html=1;" parent="1" vertex="1">
                    <mxGeometry x="561" y="404" width="80" height="38" as="geometry"/>
                </mxCell>
                <mxCell id="89" value="" style="edgeStyle=none;html=1;endArrow=none;endFill=0;" parent="1" source="87" target="86" edge="1">
                    <mxGeometry relative="1" as="geometry"/>
                </mxCell>
                <mxCell id="91" value="1" style="edgeLabel;html=1;align=center;verticalAlign=middle;resizable=0;points=[];" parent="89" vertex="1" connectable="0">
                    <mxGeometry x="0.5937" y="-1" relative="1" as="geometry">
                        <mxPoint as="offset"/>
                    </mxGeometry>
                </mxCell>
                <mxCell id="87" value="assigned" style="rhombus;whiteSpace=wrap;html=1;" parent="1" vertex="1">
                    <mxGeometry x="431" y="395" width="66" height="56" as="geometry"/>
                </mxCell>
                <mxCell id="93" value="&lt;u&gt;Consultant_id&lt;/u&gt;" style="ellipse;whiteSpace=wrap;html=1;" parent="1" vertex="1">
                    <mxGeometry x="586" y="494" width="90" height="44" as="geometry"/>
                </mxCell>
                <mxCell id="95" value="Name" style="ellipse;whiteSpace=wrap;html=1;" parent="1" vertex="1">
                    <mxGeometry x="695" y="461" width="73" height="37" as="geometry"/>
                </mxCell>
                <mxCell id="127" style="edgeStyle=none;html=1;endArrow=none;endFill=0;" parent="1" source="97" target="128" edge="1">
                    <mxGeometry relative="1" as="geometry">
                        <mxPoint x="838.3334350585938" y="224.00000508626306" as="targetPoint"/>
                    </mxGeometry>
                </mxCell>
                <mxCell id="130" style="edgeStyle=none;html=1;exitX=1;exitY=0.25;exitDx=0;exitDy=0;endArrow=none;endFill=0;entryX=0;entryY=1;entryDx=0;entryDy=0;" parent="1" source="97" target="131" edge="1">
                    <mxGeometry relative="1" as="geometry">
                        <mxPoint x="836.3334147135417" y="200.6666717529297" as="targetPoint"/>
                    </mxGeometry>
                </mxCell>
                <mxCell id="97" value="drug" style="whiteSpace=wrap;html=1;" parent="1" vertex="1">
                    <mxGeometry x="627" y="230" width="80" height="38" as="geometry"/>
                </mxCell>
                <mxCell id="102" style="edgeStyle=none;html=1;exitX=1;exitY=0;exitDx=0;exitDy=0;entryX=0.5;entryY=1;entryDx=0;entryDy=0;endArrow=none;endFill=0;" parent="1" source="101" target="97" edge="1">
                    <mxGeometry relative="1" as="geometry"/>
                </mxCell>
                <mxCell id="111" style="edgeStyle=none;html=1;exitX=0.5;exitY=1;exitDx=0;exitDy=0;endArrow=none;endFill=0;entryX=0.011;entryY=0.409;entryDx=0;entryDy=0;entryPerimeter=0;" parent="1" source="101" target="113" edge="1">
                    <mxGeometry relative="1" as="geometry">
                        <mxPoint x="641" y="363" as="targetPoint"/>
                    </mxGeometry>
                </mxCell>
                <mxCell id="112" style="edgeStyle=none;html=1;exitX=1;exitY=1;exitDx=0;exitDy=0;endArrow=none;endFill=0;entryX=0;entryY=0.5;entryDx=0;entryDy=0;" parent="1" source="101" target="114" edge="1">
                    <mxGeometry relative="1" as="geometry">
                        <mxPoint x="679" y="319" as="targetPoint"/>
                    </mxGeometry>
                </mxCell>
                <mxCell id="117" style="edgeStyle=none;html=1;exitX=1;exitY=0.5;exitDx=0;exitDy=0;entryX=0.281;entryY=0.962;entryDx=0;entryDy=0;entryPerimeter=0;endArrow=none;endFill=0;" parent="1" source="101" target="116" edge="1">
                    <mxGeometry relative="1" as="geometry"/>
                </mxCell>
                <mxCell id="101" value="gives" style="rhombus;whiteSpace=wrap;html=1;" parent="1" vertex="1">
                    <mxGeometry x="470.5" y="297" width="67" height="56" as="geometry"/>
                </mxCell>
                <mxCell id="104" style="edgeStyle=none;html=1;exitX=0.5;exitY=1;exitDx=0;exitDy=0;entryX=0.5;entryY=0;entryDx=0;entryDy=0;endArrow=none;endFill=0;" parent="1" source="103" target="101" edge="1">
                    <mxGeometry relative="1" as="geometry"/>
                </mxCell>
                <mxCell id="106" value="" style="edgeStyle=none;html=1;endArrow=none;endFill=0;" parent="1" source="103" target="105" edge="1">
                    <mxGeometry relative="1" as="geometry"/>
                </mxCell>
                <mxCell id="110" value="1" style="edgeLabel;html=1;align=center;verticalAlign=middle;resizable=0;points=[];" parent="106" vertex="1" connectable="0">
                    <mxGeometry x="-0.4181" y="-3" relative="1" as="geometry">
                        <mxPoint as="offset"/>
                    </mxGeometry>
                </mxCell>
                <mxCell id="122" style="edgeStyle=none;html=1;exitX=0.75;exitY=0;exitDx=0;exitDy=0;entryX=0.5;entryY=1;entryDx=0;entryDy=0;endArrow=none;endFill=0;" parent="1" source="103" target="121" edge="1">
                    <mxGeometry relative="1" as="geometry"/>
                </mxCell>
                <mxCell id="125" style="edgeStyle=none;html=1;exitX=1;exitY=0.5;exitDx=0;exitDy=0;entryX=0;entryY=0.5;entryDx=0;entryDy=0;endArrow=none;endFill=0;" parent="1" source="103" target="124" edge="1">
                    <mxGeometry relative="1" as="geometry"/>
                </mxCell>
                <mxCell id="126" style="edgeStyle=none;html=1;exitX=0.5;exitY=0;exitDx=0;exitDy=0;entryX=1;entryY=1;entryDx=0;entryDy=0;endArrow=none;endFill=0;" parent="1" source="103" target="123" edge="1">
                    <mxGeometry relative="1" as="geometry"/>
                </mxCell>
                <mxCell id="103" value="nurse" style="whiteSpace=wrap;html=1;" parent="1" vertex="1">
                    <mxGeometry x="577" y="137" width="80" height="38" as="geometry"/>
                </mxCell>
                <mxCell id="107" style="edgeStyle=none;html=1;entryX=1;entryY=0.5;entryDx=0;entryDy=0;endArrow=none;endFill=0;" parent="1" source="105" target="67" edge="1">
                    <mxGeometry relative="1" as="geometry"/>
                </mxCell>
                <mxCell id="109" value="1" style="edgeLabel;html=1;align=center;verticalAlign=middle;resizable=0;points=[];" parent="107" vertex="1" connectable="0">
                    <mxGeometry x="0.5457" y="1" relative="1" as="geometry">
                        <mxPoint as="offset"/>
                    </mxGeometry>
                </mxCell>
                <mxCell id="105" value="serve" style="rhombus;whiteSpace=wrap;html=1;" parent="1" vertex="1">
                    <mxGeometry x="447" y="202" width="58" height="47" as="geometry"/>
                </mxCell>
                <mxCell id="113" value="date" style="ellipse;whiteSpace=wrap;html=1;" parent="1" vertex="1">
                    <mxGeometry x="796" y="373" width="90" height="44" as="geometry"/>
                </mxCell>
                <mxCell id="114" value="dosage" style="ellipse;whiteSpace=wrap;html=1;" parent="1" vertex="1">
                    <mxGeometry x="804" y="312" width="90" height="44" as="geometry"/>
                </mxCell>
                <mxCell id="116" value="time" style="ellipse;whiteSpace=wrap;html=1;" parent="1" vertex="1">
                    <mxGeometry x="782" y="264" width="90" height="44" as="geometry"/>
                </mxCell>
                <mxCell id="121" value="name" style="ellipse;whiteSpace=wrap;html=1;" parent="1" vertex="1">
                    <mxGeometry x="641" y="65" width="73" height="42" as="geometry"/>
                </mxCell>
                <mxCell id="123" value="&lt;u&gt;number&lt;/u&gt;" style="ellipse;whiteSpace=wrap;html=1;" parent="1" vertex="1">
                    <mxGeometry x="523" y="60" width="73" height="42" as="geometry"/>
                </mxCell>
                <mxCell id="124" value="address" style="ellipse;whiteSpace=wrap;html=1;" parent="1" vertex="1">
                    <mxGeometry x="742" y="102" width="73" height="42" as="geometry"/>
                </mxCell>
                <mxCell id="128" value="&lt;u&gt;code_num&lt;/u&gt;" style="ellipse;whiteSpace=wrap;html=1;" parent="1" vertex="1">
                    <mxGeometry x="848" y="214" width="90" height="44" as="geometry"/>
                </mxCell>
                <mxCell id="131" value="recommended_usage" style="ellipse;whiteSpace=wrap;html=1;" parent="1" vertex="1">
                    <mxGeometry x="920" y="165" width="137" height="44" as="geometry"/>
                </mxCell>
                <mxCell id="133" style="edgeStyle=none;html=1;entryX=1;entryY=0;entryDx=0;entryDy=0;endArrow=none;endFill=0;" parent="1" source="132" target="97" edge="1">
                    <mxGeometry relative="1" as="geometry"/>
                </mxCell>
                <mxCell id="132" value="brand_name" style="ellipse;whiteSpace=wrap;html=1;" parent="1" vertex="1">
                    <mxGeometry x="818" y="144" width="90" height="44" as="geometry"/>
                </mxCell>
                <mxCell id="136" style="edgeStyle=none;html=1;exitX=1;exitY=0.5;exitDx=0;exitDy=0;endArrow=none;endFill=0;" parent="1" source="135" target="103" edge="1">
                    <mxGeometry relative="1" as="geometry"/>
                </mxCell>
                <mxCell id="135" value="supervised" style="rhombus;whiteSpace=wrap;html=1;" parent="1" vertex="1">
                    <mxGeometry x="425" y="127" width="85" height="61" as="geometry"/>
                </mxCell>
            </root>
        </mxGraphModel>
    </diagram>
    <diagram id="J9xErU-Lk9GSxlmj-dff" name="problem-5">
        <mxGraphModel dx="712" dy="683" grid="1" gridSize="10" guides="1" tooltips="1" connect="1" arrows="1" fold="1" page="1" pageScale="1" pageWidth="827" pageHeight="1169" math="0" shadow="0">
            <root>
                <mxCell id="0"/>
                <mxCell id="1" parent="0"/>
                <mxCell id="tBHzeV9Hhb7AWrniG5oW-1" value="&lt;u&gt;id_num&lt;/u&gt;" style="ellipse;whiteSpace=wrap;html=1;" parent="1" vertex="1">
                    <mxGeometry x="115" y="270" width="70" height="40" as="geometry"/>
                </mxCell>
                <mxCell id="tBHzeV9Hhb7AWrniG5oW-5" style="edgeStyle=none;html=1;exitX=0.25;exitY=0;exitDx=0;exitDy=0;endArrow=none;endFill=0;" parent="1" source="tBHzeV9Hhb7AWrniG5oW-4" target="tBHzeV9Hhb7AWrniG5oW-1" edge="1">
                    <mxGeometry relative="1" as="geometry"/>
                </mxCell>
                <mxCell id="bYwEDSvdavzCTGoBPv---4" style="edgeStyle=none;html=1;exitX=0.5;exitY=0;exitDx=0;exitDy=0;entryX=0.5;entryY=1;entryDx=0;entryDy=0;endArrow=none;endFill=0;" parent="1" source="tBHzeV9Hhb7AWrniG5oW-4" target="bYwEDSvdavzCTGoBPv---1" edge="1">
                    <mxGeometry relative="1" as="geometry"/>
                </mxCell>
                <mxCell id="bYwEDSvdavzCTGoBPv---5" style="edgeStyle=none;html=1;exitX=0.75;exitY=0;exitDx=0;exitDy=0;entryX=0.421;entryY=1;entryDx=0;entryDy=0;entryPerimeter=0;endArrow=none;endFill=0;" parent="1" source="tBHzeV9Hhb7AWrniG5oW-4" target="bYwEDSvdavzCTGoBPv---2" edge="1">
                    <mxGeometry relative="1" as="geometry"/>
                </mxCell>
                <mxCell id="bYwEDSvdavzCTGoBPv---6" style="edgeStyle=none;html=1;exitX=0;exitY=0.5;exitDx=0;exitDy=0;endArrow=none;endFill=0;entryX=1;entryY=0.5;entryDx=0;entryDy=0;" parent="1" source="tBHzeV9Hhb7AWrniG5oW-4" target="bYwEDSvdavzCTGoBPv---3" edge="1">
                    <mxGeometry relative="1" as="geometry">
                        <mxPoint x="190" y="330.16666666666674" as="targetPoint"/>
                    </mxGeometry>
                </mxCell>
                <mxCell id="bYwEDSvdavzCTGoBPv---84" style="edgeStyle=none;html=1;exitX=1;exitY=0.5;exitDx=0;exitDy=0;entryX=0;entryY=0.5;entryDx=0;entryDy=0;endArrow=none;endFill=0;" parent="1" source="tBHzeV9Hhb7AWrniG5oW-4" target="bYwEDSvdavzCTGoBPv---83" edge="1">
                    <mxGeometry relative="1" as="geometry"/>
                </mxCell>
                <mxCell id="bYwEDSvdavzCTGoBPv---88" value="" style="edgeStyle=none;html=1;endArrow=none;endFill=0;" parent="1" source="tBHzeV9Hhb7AWrniG5oW-4" target="bYwEDSvdavzCTGoBPv---87" edge="1">
                    <mxGeometry relative="1" as="geometry"/>
                </mxCell>
                <mxCell id="bYwEDSvdavzCTGoBPv---112" style="edgeStyle=none;html=1;exitX=1;exitY=0;exitDx=0;exitDy=0;endArrow=none;endFill=0;entryX=0.5;entryY=1;entryDx=0;entryDy=0;" parent="1" source="tBHzeV9Hhb7AWrniG5oW-4" target="bYwEDSvdavzCTGoBPv---114" edge="1">
                    <mxGeometry relative="1" as="geometry">
                        <mxPoint x="390" y="230" as="targetPoint"/>
                    </mxGeometry>
                </mxCell>
                <mxCell id="tBHzeV9Hhb7AWrniG5oW-4" value="airline&amp;nbsp;" style="rounded=0;whiteSpace=wrap;html=1;" parent="1" vertex="1">
                    <mxGeometry x="250" y="310" width="70" height="30" as="geometry"/>
                </mxCell>
                <mxCell id="bYwEDSvdavzCTGoBPv---1" value="address" style="ellipse;whiteSpace=wrap;html=1;" parent="1" vertex="1">
                    <mxGeometry x="150" y="220" width="60" height="40" as="geometry"/>
                </mxCell>
                <mxCell id="bYwEDSvdavzCTGoBPv---2" value="contact_name" style="ellipse;whiteSpace=wrap;html=1;" parent="1" vertex="1">
                    <mxGeometry x="220" y="205" width="90" height="40" as="geometry"/>
                </mxCell>
                <mxCell id="bYwEDSvdavzCTGoBPv---3" value="name" style="ellipse;whiteSpace=wrap;html=1;" parent="1" vertex="1">
                    <mxGeometry x="120" y="320" width="60" height="30" as="geometry"/>
                </mxCell>
                <mxCell id="bYwEDSvdavzCTGoBPv---8" style="edgeStyle=none;html=1;exitX=1;exitY=0.5;exitDx=0;exitDy=0;entryX=0;entryY=0.75;entryDx=0;entryDy=0;endArrow=none;endFill=0;" parent="1" source="bYwEDSvdavzCTGoBPv---7" target="tBHzeV9Hhb7AWrniG5oW-4" edge="1">
                    <mxGeometry relative="1" as="geometry"/>
                </mxCell>
                <mxCell id="bYwEDSvdavzCTGoBPv---7" value="telephone" style="ellipse;whiteSpace=wrap;html=1;" parent="1" vertex="1">
                    <mxGeometry x="110" y="360" width="70" height="40" as="geometry"/>
                </mxCell>
                <mxCell id="bYwEDSvdavzCTGoBPv---15" style="edgeStyle=none;html=1;exitX=1;exitY=0;exitDx=0;exitDy=0;entryX=0.222;entryY=0.948;entryDx=0;entryDy=0;entryPerimeter=0;endArrow=none;endFill=0;" parent="1" source="bYwEDSvdavzCTGoBPv---9" target="bYwEDSvdavzCTGoBPv---13" edge="1">
                    <mxGeometry relative="1" as="geometry"/>
                </mxCell>
                <mxCell id="bYwEDSvdavzCTGoBPv---16" style="edgeStyle=none;html=1;exitX=0.75;exitY=0;exitDx=0;exitDy=0;entryX=0.5;entryY=1;entryDx=0;entryDy=0;endArrow=none;endFill=0;" parent="1" source="bYwEDSvdavzCTGoBPv---9" target="bYwEDSvdavzCTGoBPv---10" edge="1">
                    <mxGeometry relative="1" as="geometry"/>
                </mxCell>
                <mxCell id="bYwEDSvdavzCTGoBPv---17" style="edgeStyle=none;html=1;exitX=0.5;exitY=0;exitDx=0;exitDy=0;entryX=0.63;entryY=0.962;entryDx=0;entryDy=0;entryPerimeter=0;endArrow=none;endFill=0;" parent="1" source="bYwEDSvdavzCTGoBPv---9" target="bYwEDSvdavzCTGoBPv---12" edge="1">
                    <mxGeometry relative="1" as="geometry"/>
                </mxCell>
                <mxCell id="bYwEDSvdavzCTGoBPv---18" style="edgeStyle=none;html=1;exitX=1;exitY=0.5;exitDx=0;exitDy=0;endArrow=none;endFill=0;" parent="1" source="bYwEDSvdavzCTGoBPv---9" target="bYwEDSvdavzCTGoBPv---14" edge="1">
                    <mxGeometry relative="1" as="geometry"/>
                </mxCell>
                <mxCell id="bYwEDSvdavzCTGoBPv---19" style="edgeStyle=none;html=1;exitX=0.75;exitY=1;exitDx=0;exitDy=0;endArrow=none;endFill=0;entryX=-0.011;entryY=0.376;entryDx=0;entryDy=0;entryPerimeter=0;" parent="1" source="bYwEDSvdavzCTGoBPv---9" target="bYwEDSvdavzCTGoBPv---20" edge="1">
                    <mxGeometry relative="1" as="geometry">
                        <mxPoint x="720" y="400.0000000000001" as="targetPoint"/>
                    </mxGeometry>
                </mxCell>
                <mxCell id="bYwEDSvdavzCTGoBPv---29" style="edgeStyle=none;html=1;exitX=0.174;exitY=-0.003;exitDx=0;exitDy=0;endArrow=none;endFill=0;exitPerimeter=0;" parent="1" source="bYwEDSvdavzCTGoBPv---9" target="bYwEDSvdavzCTGoBPv---28" edge="1">
                    <mxGeometry relative="1" as="geometry"/>
                </mxCell>
                <mxCell id="bYwEDSvdavzCTGoBPv---32" style="edgeStyle=none;html=1;exitX=0;exitY=0.25;exitDx=0;exitDy=0;entryX=1;entryY=1;entryDx=0;entryDy=0;endArrow=none;endFill=0;" parent="1" source="bYwEDSvdavzCTGoBPv---9" target="bYwEDSvdavzCTGoBPv---30" edge="1">
                    <mxGeometry relative="1" as="geometry"/>
                </mxCell>
                <mxCell id="bYwEDSvdavzCTGoBPv---33" style="edgeStyle=none;html=1;exitX=0;exitY=0.5;exitDx=0;exitDy=0;entryX=0.968;entryY=0.708;entryDx=0;entryDy=0;entryPerimeter=0;endArrow=none;endFill=0;" parent="1" source="bYwEDSvdavzCTGoBPv---9" target="bYwEDSvdavzCTGoBPv---31" edge="1">
                    <mxGeometry relative="1" as="geometry"/>
                </mxCell>
                <mxCell id="bYwEDSvdavzCTGoBPv---9" value="employee" style="rounded=0;whiteSpace=wrap;html=1;" parent="1" vertex="1">
                    <mxGeometry x="580" y="320" width="70" height="30" as="geometry"/>
                </mxCell>
                <mxCell id="bYwEDSvdavzCTGoBPv---10" value="address" style="ellipse;whiteSpace=wrap;html=1;" parent="1" vertex="1">
                    <mxGeometry x="690" y="220" width="70" height="40" as="geometry"/>
                </mxCell>
                <mxCell id="bYwEDSvdavzCTGoBPv---12" value="&lt;u&gt;id_num&lt;/u&gt;" style="ellipse;whiteSpace=wrap;html=1;" parent="1" vertex="1">
                    <mxGeometry x="615" y="220" width="70" height="40" as="geometry"/>
                </mxCell>
                <mxCell id="bYwEDSvdavzCTGoBPv---13" value="name" style="ellipse;whiteSpace=wrap;html=1;" parent="1" vertex="1">
                    <mxGeometry x="770" y="242.5" width="60" height="40" as="geometry"/>
                </mxCell>
                <mxCell id="bYwEDSvdavzCTGoBPv---14" value="address" style="ellipse;whiteSpace=wrap;html=1;" parent="1" vertex="1">
                    <mxGeometry x="780" y="290" width="70" height="40" as="geometry"/>
                </mxCell>
                <mxCell id="bYwEDSvdavzCTGoBPv---24" style="edgeStyle=none;html=1;exitX=0.5;exitY=1;exitDx=0;exitDy=0;entryX=0.418;entryY=0.042;entryDx=0;entryDy=0;entryPerimeter=0;endArrow=none;endFill=0;" parent="1" source="bYwEDSvdavzCTGoBPv---20" target="bYwEDSvdavzCTGoBPv---23" edge="1">
                    <mxGeometry relative="1" as="geometry"/>
                </mxCell>
                <mxCell id="bYwEDSvdavzCTGoBPv---25" style="edgeStyle=none;html=1;exitX=1;exitY=1;exitDx=0;exitDy=0;endArrow=none;endFill=0;" parent="1" source="bYwEDSvdavzCTGoBPv---20" target="bYwEDSvdavzCTGoBPv---22" edge="1">
                    <mxGeometry relative="1" as="geometry"/>
                </mxCell>
                <mxCell id="bYwEDSvdavzCTGoBPv---26" style="edgeStyle=none;html=1;exitX=1;exitY=0.5;exitDx=0;exitDy=0;entryX=0;entryY=0.5;entryDx=0;entryDy=0;endArrow=none;endFill=0;" parent="1" source="bYwEDSvdavzCTGoBPv---20" target="bYwEDSvdavzCTGoBPv---21" edge="1">
                    <mxGeometry relative="1" as="geometry"/>
                </mxCell>
                <mxCell id="bYwEDSvdavzCTGoBPv---20" value="BDay" style="ellipse;whiteSpace=wrap;html=1;" parent="1" vertex="1">
                    <mxGeometry x="679.9999999999999" y="380.00000000000006" width="80" height="50" as="geometry"/>
                </mxCell>
                <mxCell id="bYwEDSvdavzCTGoBPv---21" value="day" style="ellipse;whiteSpace=wrap;html=1;" parent="1" vertex="1">
                    <mxGeometry x="820" y="375" width="60" height="40" as="geometry"/>
                </mxCell>
                <mxCell id="bYwEDSvdavzCTGoBPv---22" value="month" style="ellipse;whiteSpace=wrap;html=1;" parent="1" vertex="1">
                    <mxGeometry x="820" y="440" width="70" height="40" as="geometry"/>
                </mxCell>
                <mxCell id="bYwEDSvdavzCTGoBPv---23" value="year" style="ellipse;whiteSpace=wrap;html=1;" parent="1" vertex="1">
                    <mxGeometry x="740" y="460" width="60" height="40" as="geometry"/>
                </mxCell>
                <mxCell id="bYwEDSvdavzCTGoBPv---27" value="" style="ellipse;whiteSpace=wrap;html=1;fillColor=none;" parent="1" vertex="1">
                    <mxGeometry x="685" y="385" width="70" height="40" as="geometry"/>
                </mxCell>
                <mxCell id="bYwEDSvdavzCTGoBPv---28" value="gender" style="ellipse;whiteSpace=wrap;html=1;" parent="1" vertex="1">
                    <mxGeometry x="550" y="220" width="60" height="40" as="geometry"/>
                </mxCell>
                <mxCell id="bYwEDSvdavzCTGoBPv---30" value="position" style="ellipse;whiteSpace=wrap;html=1;" parent="1" vertex="1">
                    <mxGeometry x="480" y="220" width="60" height="40" as="geometry"/>
                </mxCell>
                <mxCell id="bYwEDSvdavzCTGoBPv---31" value="qualifications" style="ellipse;whiteSpace=wrap;html=1;" parent="1" vertex="1">
                    <mxGeometry x="400" y="245" width="80" height="45" as="geometry"/>
                </mxCell>
                <mxCell id="bYwEDSvdavzCTGoBPv---38" style="edgeStyle=none;html=1;exitX=0;exitY=0;exitDx=0;exitDy=0;entryX=1;entryY=0.5;entryDx=0;entryDy=0;endArrow=none;endFill=0;" parent="1" source="bYwEDSvdavzCTGoBPv---34" target="bYwEDSvdavzCTGoBPv---35" edge="1">
                    <mxGeometry relative="1" as="geometry"/>
                </mxCell>
                <mxCell id="bYwEDSvdavzCTGoBPv---39" style="edgeStyle=none;html=1;exitX=0;exitY=0.5;exitDx=0;exitDy=0;entryX=1;entryY=0.5;entryDx=0;entryDy=0;endArrow=none;endFill=0;" parent="1" source="bYwEDSvdavzCTGoBPv---34" target="bYwEDSvdavzCTGoBPv---36" edge="1">
                    <mxGeometry relative="1" as="geometry"/>
                </mxCell>
                <mxCell id="bYwEDSvdavzCTGoBPv---40" style="edgeStyle=none;html=1;exitX=0;exitY=0.75;exitDx=0;exitDy=0;entryX=0.99;entryY=0.307;entryDx=0;entryDy=0;entryPerimeter=0;endArrow=none;endFill=0;" parent="1" source="bYwEDSvdavzCTGoBPv---34" target="bYwEDSvdavzCTGoBPv---37" edge="1">
                    <mxGeometry relative="1" as="geometry"/>
                </mxCell>
                <mxCell id="bYwEDSvdavzCTGoBPv---91" style="edgeStyle=none;html=1;endArrow=none;endFill=0;entryX=0;entryY=0.5;entryDx=0;entryDy=0;" parent="1" source="bYwEDSvdavzCTGoBPv---34" target="bYwEDSvdavzCTGoBPv---92" edge="1">
                    <mxGeometry relative="1" as="geometry">
                        <mxPoint x="420" y="510" as="targetPoint"/>
                    </mxGeometry>
                </mxCell>
                <mxCell id="bYwEDSvdavzCTGoBPv---94" value="M" style="edgeLabel;html=1;align=center;verticalAlign=middle;resizable=0;points=[];" parent="bYwEDSvdavzCTGoBPv---91" vertex="1" connectable="0">
                    <mxGeometry x="-0.7945" y="2" relative="1" as="geometry">
                        <mxPoint as="offset"/>
                    </mxGeometry>
                </mxCell>
                <mxCell id="bYwEDSvdavzCTGoBPv---96" style="edgeStyle=none;html=1;endArrow=none;endFill=0;entryX=1;entryY=0.5;entryDx=0;entryDy=0;" parent="1" source="bYwEDSvdavzCTGoBPv---34" target="bYwEDSvdavzCTGoBPv---97" edge="1">
                    <mxGeometry relative="1" as="geometry">
                        <mxPoint x="210" y="620" as="targetPoint"/>
                    </mxGeometry>
                </mxCell>
                <mxCell id="bYwEDSvdavzCTGoBPv---100" style="edgeStyle=none;html=1;exitX=0.5;exitY=1;exitDx=0;exitDy=0;endArrow=none;endFill=0;entryX=1;entryY=0;entryDx=0;entryDy=0;" parent="1" source="bYwEDSvdavzCTGoBPv---34" target="bYwEDSvdavzCTGoBPv---101" edge="1">
                    <mxGeometry relative="1" as="geometry">
                        <mxPoint x="180" y="620" as="targetPoint"/>
                    </mxGeometry>
                </mxCell>
                <mxCell id="bYwEDSvdavzCTGoBPv---102" style="edgeStyle=none;html=1;endArrow=none;endFill=0;entryX=0.5;entryY=0;entryDx=0;entryDy=0;exitX=0.5;exitY=1;exitDx=0;exitDy=0;" parent="1" source="bYwEDSvdavzCTGoBPv---34" target="bYwEDSvdavzCTGoBPv---103" edge="1">
                    <mxGeometry relative="1" as="geometry">
                        <mxPoint x="213" y="700" as="targetPoint"/>
                    </mxGeometry>
                </mxCell>
                <mxCell id="bYwEDSvdavzCTGoBPv---106" value="1" style="edgeLabel;html=1;align=center;verticalAlign=middle;resizable=0;points=[];" parent="bYwEDSvdavzCTGoBPv---102" vertex="1" connectable="0">
                    <mxGeometry x="-0.7135" y="3" relative="1" as="geometry">
                        <mxPoint x="-9" y="14" as="offset"/>
                    </mxGeometry>
                </mxCell>
                <mxCell id="bYwEDSvdavzCTGoBPv---34" value="aircraft" style="rounded=0;whiteSpace=wrap;html=1;" parent="1" vertex="1">
                    <mxGeometry x="240" y="510" width="70" height="30" as="geometry"/>
                </mxCell>
                <mxCell id="bYwEDSvdavzCTGoBPv---35" value="&lt;u&gt;id_num&lt;/u&gt;" style="ellipse;whiteSpace=wrap;html=1;" parent="1" vertex="1">
                    <mxGeometry x="90" y="415" width="60" height="30" as="geometry"/>
                </mxCell>
                <mxCell id="bYwEDSvdavzCTGoBPv---36" value="capacity" style="ellipse;whiteSpace=wrap;html=1;" parent="1" vertex="1">
                    <mxGeometry x="90" y="455" width="60" height="30" as="geometry"/>
                </mxCell>
                <mxCell id="bYwEDSvdavzCTGoBPv---37" value="model" style="ellipse;whiteSpace=wrap;html=1;" parent="1" vertex="1">
                    <mxGeometry x="90" y="495" width="60" height="30" as="geometry"/>
                </mxCell>
                <mxCell id="bYwEDSvdavzCTGoBPv---41" value="routes" style="rounded=0;whiteSpace=wrap;html=1;" parent="1" vertex="1">
                    <mxGeometry x="585" y="525" width="60" height="30" as="geometry"/>
                </mxCell>
                <mxCell id="bYwEDSvdavzCTGoBPv---49" style="edgeStyle=none;html=1;exitX=0.5;exitY=0;exitDx=0;exitDy=0;entryX=0.398;entryY=0.964;entryDx=0;entryDy=0;entryPerimeter=0;endArrow=none;endFill=0;" parent="1" source="bYwEDSvdavzCTGoBPv---43" target="bYwEDSvdavzCTGoBPv---41" edge="1">
                    <mxGeometry relative="1" as="geometry"/>
                </mxCell>
                <mxCell id="bYwEDSvdavzCTGoBPv---43" value="&lt;u&gt;id_num&lt;/u&gt;" style="ellipse;whiteSpace=wrap;html=1;" parent="1" vertex="1">
                    <mxGeometry x="585" y="615" width="60" height="30" as="geometry"/>
                </mxCell>
                <mxCell id="bYwEDSvdavzCTGoBPv---50" style="edgeStyle=none;html=1;exitX=0.5;exitY=0;exitDx=0;exitDy=0;entryX=0.75;entryY=1;entryDx=0;entryDy=0;endArrow=none;endFill=0;" parent="1" source="bYwEDSvdavzCTGoBPv---44" target="bYwEDSvdavzCTGoBPv---41" edge="1">
                    <mxGeometry relative="1" as="geometry"/>
                </mxCell>
                <mxCell id="bYwEDSvdavzCTGoBPv---44" value="origin" style="ellipse;whiteSpace=wrap;html=1;" parent="1" vertex="1">
                    <mxGeometry x="655" y="615" width="60" height="30" as="geometry"/>
                </mxCell>
                <mxCell id="bYwEDSvdavzCTGoBPv---52" style="edgeStyle=none;html=1;exitX=0;exitY=0.5;exitDx=0;exitDy=0;entryX=1;entryY=0.5;entryDx=0;entryDy=0;endArrow=none;endFill=0;" parent="1" source="bYwEDSvdavzCTGoBPv---45" target="bYwEDSvdavzCTGoBPv---41" edge="1">
                    <mxGeometry relative="1" as="geometry"/>
                </mxCell>
                <mxCell id="bYwEDSvdavzCTGoBPv---45" value="destination" style="ellipse;whiteSpace=wrap;html=1;" parent="1" vertex="1">
                    <mxGeometry x="700" y="535" width="70" height="30" as="geometry"/>
                </mxCell>
                <mxCell id="bYwEDSvdavzCTGoBPv---51" style="edgeStyle=none;html=1;exitX=0;exitY=0.5;exitDx=0;exitDy=0;entryX=1;entryY=1;entryDx=0;entryDy=0;endArrow=none;endFill=0;" parent="1" source="bYwEDSvdavzCTGoBPv---46" target="bYwEDSvdavzCTGoBPv---41" edge="1">
                    <mxGeometry relative="1" as="geometry"/>
                </mxCell>
                <mxCell id="bYwEDSvdavzCTGoBPv---46" value="distance" style="ellipse;whiteSpace=wrap;html=1;" parent="1" vertex="1">
                    <mxGeometry x="700" y="575" width="60" height="30" as="geometry"/>
                </mxCell>
                <mxCell id="bYwEDSvdavzCTGoBPv---48" style="edgeStyle=none;html=1;exitX=1;exitY=0;exitDx=0;exitDy=0;entryX=0;entryY=1;entryDx=0;entryDy=0;endArrow=none;endFill=0;" parent="1" source="bYwEDSvdavzCTGoBPv---47" target="bYwEDSvdavzCTGoBPv---41" edge="1">
                    <mxGeometry relative="1" as="geometry"/>
                </mxCell>
                <mxCell id="bYwEDSvdavzCTGoBPv---47" value="classification" style="ellipse;whiteSpace=wrap;html=1;" parent="1" vertex="1">
                    <mxGeometry x="495" y="615" width="80" height="30" as="geometry"/>
                </mxCell>
                <mxCell id="bYwEDSvdavzCTGoBPv---55" style="edgeStyle=none;html=1;exitX=0.25;exitY=1;exitDx=0;exitDy=0;entryX=1;entryY=0;entryDx=0;entryDy=0;endArrow=none;endFill=0;" parent="1" source="bYwEDSvdavzCTGoBPv---53" target="bYwEDSvdavzCTGoBPv---54" edge="1">
                    <mxGeometry relative="1" as="geometry"/>
                </mxCell>
                <mxCell id="bYwEDSvdavzCTGoBPv---73" style="edgeStyle=none;html=1;exitX=0.586;exitY=-0.067;exitDx=0;exitDy=0;entryX=0.306;entryY=1;entryDx=0;entryDy=0;endArrow=none;endFill=0;exitPerimeter=0;entryPerimeter=0;" parent="1" source="bYwEDSvdavzCTGoBPv---53" target="bYwEDSvdavzCTGoBPv---65" edge="1">
                    <mxGeometry relative="1" as="geometry"/>
                </mxCell>
                <mxCell id="bYwEDSvdavzCTGoBPv---113" style="edgeStyle=none;html=1;exitX=1;exitY=0.75;exitDx=0;exitDy=0;endArrow=none;endFill=0;entryX=0.5;entryY=0;entryDx=0;entryDy=0;" parent="1" source="bYwEDSvdavzCTGoBPv---53" target="bYwEDSvdavzCTGoBPv---114" edge="1">
                    <mxGeometry relative="1" as="geometry">
                        <mxPoint x="310" y="170" as="targetPoint"/>
                    </mxGeometry>
                </mxCell>
                <mxCell id="bYwEDSvdavzCTGoBPv---53" value="transaction" style="rounded=0;whiteSpace=wrap;html=1;" parent="1" vertex="1">
                    <mxGeometry x="190" y="130" width="70" height="30" as="geometry"/>
                </mxCell>
                <mxCell id="bYwEDSvdavzCTGoBPv---54" value="&lt;u&gt;id_num&lt;/u&gt;" style="ellipse;whiteSpace=wrap;html=1;" parent="1" vertex="1">
                    <mxGeometry x="90" y="77.5" width="60" height="30" as="geometry"/>
                </mxCell>
                <mxCell id="bYwEDSvdavzCTGoBPv---79" style="edgeStyle=none;html=1;entryX=0;entryY=0.75;entryDx=0;entryDy=0;endArrow=none;endFill=0;" parent="1" source="bYwEDSvdavzCTGoBPv---62" target="bYwEDSvdavzCTGoBPv---53" edge="1">
                    <mxGeometry relative="1" as="geometry"/>
                </mxCell>
                <mxCell id="bYwEDSvdavzCTGoBPv---62" value="date" style="ellipse;whiteSpace=wrap;html=1;" parent="1" vertex="1">
                    <mxGeometry x="70" y="115" width="60" height="30" as="geometry"/>
                </mxCell>
                <mxCell id="bYwEDSvdavzCTGoBPv---77" value="" style="edgeStyle=none;html=1;endArrow=none;endFill=0;" parent="1" source="bYwEDSvdavzCTGoBPv---63" target="bYwEDSvdavzCTGoBPv---53" edge="1">
                    <mxGeometry relative="1" as="geometry"/>
                </mxCell>
                <mxCell id="bYwEDSvdavzCTGoBPv---63" value="description" style="ellipse;whiteSpace=wrap;html=1;" parent="1" vertex="1">
                    <mxGeometry x="140" y="47.5" width="70" height="30" as="geometry"/>
                </mxCell>
                <mxCell id="bYwEDSvdavzCTGoBPv---64" value="paid" style="ellipse;whiteSpace=wrap;html=1;" parent="1" vertex="1">
                    <mxGeometry x="495" y="85" width="60" height="30" as="geometry"/>
                </mxCell>
                <mxCell id="bYwEDSvdavzCTGoBPv---65" value="origin" style="ellipse;whiteSpace=wrap;html=1;" parent="1" vertex="1">
                    <mxGeometry x="220" y="42.5" width="60" height="30" as="geometry"/>
                </mxCell>
                <mxCell id="bYwEDSvdavzCTGoBPv---67" value="recieved" style="ellipse;whiteSpace=wrap;html=1;fillColor=default;" parent="1" vertex="1">
                    <mxGeometry x="400" y="30" width="60" height="30" as="geometry"/>
                </mxCell>
                <mxCell id="bYwEDSvdavzCTGoBPv---71" style="edgeStyle=none;html=1;exitX=0.5;exitY=1;exitDx=0;exitDy=0;entryX=0;entryY=1;entryDx=0;entryDy=0;endArrow=none;endFill=0;" parent="1" source="bYwEDSvdavzCTGoBPv---68" target="bYwEDSvdavzCTGoBPv---67" edge="1">
                    <mxGeometry relative="1" as="geometry"/>
                </mxCell>
                <mxCell id="bYwEDSvdavzCTGoBPv---72" style="edgeStyle=none;html=1;exitX=1;exitY=1;exitDx=0;exitDy=0;entryX=0;entryY=0.5;entryDx=0;entryDy=0;endArrow=none;endFill=0;" parent="1" source="bYwEDSvdavzCTGoBPv---68" target="bYwEDSvdavzCTGoBPv---64" edge="1">
                    <mxGeometry relative="1" as="geometry"/>
                </mxCell>
                <mxCell id="bYwEDSvdavzCTGoBPv---68" value="amount" style="ellipse;whiteSpace=wrap;html=1;" parent="1" vertex="1">
                    <mxGeometry x="300" y="100" width="70" height="45" as="geometry"/>
                </mxCell>
                <mxCell id="bYwEDSvdavzCTGoBPv---110" value="" style="edgeStyle=none;html=1;endArrow=none;endFill=0;" parent="1" source="bYwEDSvdavzCTGoBPv---69" target="bYwEDSvdavzCTGoBPv---53" edge="1">
                    <mxGeometry relative="1" as="geometry"/>
                </mxCell>
                <mxCell id="bYwEDSvdavzCTGoBPv---69" value="" style="ellipse;whiteSpace=wrap;html=1;fillColor=none;" parent="1" vertex="1">
                    <mxGeometry x="302.5" y="102.5" width="65" height="40" as="geometry"/>
                </mxCell>
                <mxCell id="bYwEDSvdavzCTGoBPv---85" style="edgeStyle=none;html=1;exitX=1;exitY=0.5;exitDx=0;exitDy=0;entryX=0;entryY=0.75;entryDx=0;entryDy=0;endArrow=none;endFill=0;" parent="1" source="bYwEDSvdavzCTGoBPv---83" target="bYwEDSvdavzCTGoBPv---9" edge="1">
                    <mxGeometry relative="1" as="geometry"/>
                </mxCell>
                <mxCell id="bYwEDSvdavzCTGoBPv---86" value="M" style="edgeLabel;html=1;align=center;verticalAlign=middle;resizable=0;points=[];" parent="bYwEDSvdavzCTGoBPv---85" vertex="1" connectable="0">
                    <mxGeometry x="0.6768" y="-1" relative="1" as="geometry">
                        <mxPoint as="offset"/>
                    </mxGeometry>
                </mxCell>
                <mxCell id="bYwEDSvdavzCTGoBPv---83" value="works" style="rhombus;whiteSpace=wrap;html=1;fillColor=none;" parent="1" vertex="1">
                    <mxGeometry x="400" y="330" width="60" height="50" as="geometry"/>
                </mxCell>
                <mxCell id="bYwEDSvdavzCTGoBPv---89" value="" style="edgeStyle=none;html=1;endArrow=none;endFill=0;" parent="1" source="bYwEDSvdavzCTGoBPv---87" target="bYwEDSvdavzCTGoBPv---34" edge="1">
                    <mxGeometry relative="1" as="geometry"/>
                </mxCell>
                <mxCell id="bYwEDSvdavzCTGoBPv---90" value="M" style="edgeLabel;html=1;align=center;verticalAlign=middle;resizable=0;points=[];" parent="bYwEDSvdavzCTGoBPv---89" vertex="1" connectable="0">
                    <mxGeometry x="0.4894" relative="1" as="geometry">
                        <mxPoint as="offset"/>
                    </mxGeometry>
                </mxCell>
                <mxCell id="bYwEDSvdavzCTGoBPv---87" value="owns" style="rhombus;whiteSpace=wrap;html=1;rounded=0;" parent="1" vertex="1">
                    <mxGeometry x="245" y="395" width="65" height="45" as="geometry"/>
                </mxCell>
                <mxCell id="bYwEDSvdavzCTGoBPv---93" style="edgeStyle=none;html=1;exitX=1;exitY=0.5;exitDx=0;exitDy=0;entryX=0;entryY=0.5;entryDx=0;entryDy=0;endArrow=none;endFill=0;" parent="1" source="bYwEDSvdavzCTGoBPv---92" target="bYwEDSvdavzCTGoBPv---41" edge="1">
                    <mxGeometry relative="1" as="geometry"/>
                </mxCell>
                <mxCell id="bYwEDSvdavzCTGoBPv---95" value="M" style="edgeLabel;html=1;align=center;verticalAlign=middle;resizable=0;points=[];" parent="bYwEDSvdavzCTGoBPv---93" vertex="1" connectable="0">
                    <mxGeometry x="0.6411" y="1" relative="1" as="geometry">
                        <mxPoint as="offset"/>
                    </mxGeometry>
                </mxCell>
                <mxCell id="bYwEDSvdavzCTGoBPv---92" value="assigned" style="rhombus;whiteSpace=wrap;html=1;fillColor=none;" parent="1" vertex="1">
                    <mxGeometry x="413.5" y="490" width="68.5" height="50" as="geometry"/>
                </mxCell>
                <mxCell id="bYwEDSvdavzCTGoBPv---97" value="departure_date_time" style="ellipse;whiteSpace=wrap;html=1;" parent="1" vertex="1">
                    <mxGeometry x="60" y="535" width="120" height="30" as="geometry"/>
                </mxCell>
                <mxCell id="bYwEDSvdavzCTGoBPv---99" style="edgeStyle=none;html=1;entryX=0.082;entryY=1.02;entryDx=0;entryDy=0;entryPerimeter=0;endArrow=none;endFill=0;" parent="1" source="bYwEDSvdavzCTGoBPv---98" target="bYwEDSvdavzCTGoBPv---34" edge="1">
                    <mxGeometry relative="1" as="geometry"/>
                </mxCell>
                <mxCell id="bYwEDSvdavzCTGoBPv---98" value="arrival_date_time" style="ellipse;whiteSpace=wrap;html=1;" parent="1" vertex="1">
                    <mxGeometry x="60" y="575" width="125" height="30" as="geometry"/>
                </mxCell>
                <mxCell id="bYwEDSvdavzCTGoBPv---101" value="traveling_time" style="ellipse;whiteSpace=wrap;html=1;" parent="1" vertex="1">
                    <mxGeometry x="90" y="615" width="90" height="30" as="geometry"/>
                </mxCell>
                <mxCell id="bYwEDSvdavzCTGoBPv---104" value="1" style="edgeStyle=none;html=1;endArrow=none;endFill=0;entryX=0.4;entryY=-0.046;entryDx=0;entryDy=0;entryPerimeter=0;" parent="1" source="bYwEDSvdavzCTGoBPv---103" target="bYwEDSvdavzCTGoBPv---105" edge="1">
                    <mxGeometry x="0.5045" y="1" relative="1" as="geometry">
                        <mxPoint x="230" y="720" as="targetPoint"/>
                        <mxPoint as="offset"/>
                    </mxGeometry>
                </mxCell>
                <mxCell id="bYwEDSvdavzCTGoBPv---103" value="has" style="rhombus;whiteSpace=wrap;html=1;rounded=0;" parent="1" vertex="1">
                    <mxGeometry x="180" y="645" width="65" height="45" as="geometry"/>
                </mxCell>
                <mxCell id="bYwEDSvdavzCTGoBPv---105" value="crew" style="rounded=0;whiteSpace=wrap;html=1;" parent="1" vertex="1">
                    <mxGeometry x="190" y="745" width="70" height="30" as="geometry"/>
                </mxCell>
                <mxCell id="bYwEDSvdavzCTGoBPv---114" value="tracks" style="rhombus;whiteSpace=wrap;html=1;fillColor=none;" parent="1" vertex="1">
                    <mxGeometry x="354" y="170" width="60" height="50" as="geometry"/>
                </mxCell>
            </root>
        </mxGraphModel>
    </diagram>
</mxfile>